<?xml version="1.0" encoding="UTF-8"?>
<svg version="1.1" xmlns="http://www.w3.org/2000/svg" width="512" height="512">
<path d="M0 0 C0.79190735 -0.00067474 1.5838147 -0.00134949 2.39971924 -0.00204468 C24.11341857 0.0271705 44.8618894 2.73849369 65.875 8.25 C66.70805664 8.46495117 67.54111328 8.67990234 68.39941406 8.90136719 C105.39083294 18.63288871 140.25483885 38.51317874 168.08984375 64.65234375 C170.57792237 66.97292198 173.11425981 69.21258335 175.6875 71.4375 C179.02198963 74.39685955 182.00777664 77.47458936 184.87890625 80.8828125 C186.42526364 82.71665316 187.99362069 84.51503268 189.58984375 86.3046875 C204.9210832 103.6207077 217.12899636 123.3069748 226.875 144.25 C227.36782471 145.30815918 227.36782471 145.30815918 227.87060547 146.38769531 C242.66931158 178.67184189 249.32891807 212.53220416 249.1875 247.875 C249.18534485 248.84555328 249.1831897 249.81610657 249.18096924 250.81607056 C249.1299334 265.14430898 248.78258438 279.17185782 245.875 293.25 C245.67632324 294.23307129 245.47764648 295.21614258 245.27294922 296.22900391 C235.98440368 340.89055732 215.89172929 381.06808356 185.12890625 414.7734375 C183.6007804 416.45252205 182.08814142 418.14580823 180.58984375 419.8515625 C175.97349488 425.09345436 171.22809537 429.77521907 165.875 434.25 C164.95332031 435.05953125 164.03164063 435.8690625 163.08203125 436.703125 C118.51171465 475.68442036 60.7443226 496.45458067 1.75 496.5 C0.95809265 496.50067474 0.1661853 496.50134949 -0.64971924 496.50204468 C-22.38535218 496.47279999 -43.07842987 493.69365561 -64.125 488.25 C-64.85557617 488.06743652 -65.58615234 487.88487305 -66.33886719 487.69677734 C-104.12430404 478.14011501 -139.16089117 457.28030736 -167.44140625 430.74609375 C-169.72784973 428.61940178 -172.05487084 426.57927439 -174.4375 424.5625 C-177.61877725 421.79108056 -180.39843187 418.84840908 -183.11328125 415.62109375 C-184.59566699 413.87389347 -186.12063206 412.16260462 -187.66796875 410.47265625 C-227.42747238 366.60792542 -247.67212434 307.26163874 -247.4375 248.625 C-247.43534485 247.65444672 -247.4331897 246.68389343 -247.43096924 245.68392944 C-247.37995367 231.36138284 -247.05343253 217.31994021 -244.125 203.25 C-243.91568848 202.2403418 -243.70637695 201.23068359 -243.49072266 200.19042969 C-232.3262357 147.93146526 -205.82602919 96.77422163 -164.125 62.25 C-163.2071875 61.44433594 -162.289375 60.63867188 -161.34375 59.80859375 C-116.78099664 20.81530108 -58.99372992 0.04541887 0 0 Z " fill="#FB8500" transform="translate(255.125,7.75)"/>
<path d="M0 0 C19.47 0 38.94 0 59 0 C59.66 7.59 60.32 15.18 61 23 C65.20428118 68.48267822 90.52996948 114.62103122 125.5625 143.875 C127.36113571 145.26808681 129.1741177 146.64282091 131 148 C132.00675781 148.77214844 133.01351562 149.54429687 134.05078125 150.33984375 C149.94779005 162.29893024 167.31220449 171.29320047 186 178 C187.73056641 178.62841797 187.73056641 178.62841797 189.49609375 179.26953125 C235.80401321 195.34783358 287.05128138 189.85534872 330.875 169.25 C345.85124049 161.96251119 359.46948678 152.96926805 372 142 C372.87914062 141.23042969 373.75828125 140.46085938 374.6640625 139.66796875 C376.78761817 137.79095592 378.89984203 135.90310611 381 134 C384.24388914 135.42844204 386.43822147 137.17189169 388.95825195 139.65185547 C389.72196609 140.39958221 390.48568024 141.14730896 391.27253723 141.91769409 C392.08623276 142.72602692 392.89992828 143.53435974 393.73828125 144.3671875 C394.57844284 145.19832062 395.41860443 146.02945374 396.28422546 146.88577271 C398.05622329 148.64327223 399.82543033 150.4035894 401.59204102 152.16650391 C404.30742594 154.86994825 407.04089663 157.55418474 409.77539062 160.23828125 C411.49333337 161.94676523 413.21016905 163.65636327 414.92578125 165.3671875 C415.74959793 166.17147186 416.57341461 166.97575623 417.42219543 167.80441284 C418.17014877 168.55844391 418.91810211 169.31247498 419.6887207 170.08935547 C420.35394241 170.74950653 421.01916412 171.40965759 421.70454407 172.08981323 C423 174 423 174 422.81462097 176.1255188 C420.79970045 180.76194576 415.79867892 183.80716919 412 187 C411.1339917 187.73814941 411.1339917 187.73814941 410.25048828 188.49121094 C364.90527136 227.01479401 308.42062119 248.20415623 248.875 248.25 C248.08309265 248.25067474 247.2911853 248.25134949 246.47528076 248.25204468 C224.73964782 248.22279999 204.04657013 245.44365561 183 240 C182.26942383 239.81743652 181.53884766 239.63487305 180.78613281 239.44677734 C143.00069596 229.89011501 107.96410883 209.03030736 79.68359375 182.49609375 C77.39715027 180.36940178 75.07012916 178.32927439 72.6875 176.3125 C69.50622275 173.54108056 66.72656813 170.59840908 64.01171875 167.37109375 C62.52933301 165.62389347 61.00436794 163.91260462 59.45703125 162.22265625 C28.82607431 128.42900797 9.13247943 83.82578696 2 39 C1.88430664 38.29149902 1.76861328 37.58299805 1.64941406 36.85302734 C-0.30346591 24.44325743 0 12.72239085 0 0 Z " fill="#FEB603" transform="translate(8,256)"/>
<path d="M0 0 C0.79190735 -0.00067474 1.5838147 -0.00134949 2.39971924 -0.00204468 C24.11341857 0.0271705 44.8618894 2.73849369 65.875 8.25 C66.70805664 8.46495117 67.54111328 8.67990234 68.39941406 8.90136719 C105.39083294 18.63288871 140.25483885 38.51317874 168.08984375 64.65234375 C170.57792237 66.97292198 173.11425981 69.21258335 175.6875 71.4375 C179.02198963 74.39685955 182.00777664 77.47458936 184.87890625 80.8828125 C186.42526364 82.71665316 187.99362069 84.51503268 189.58984375 86.3046875 C204.9210832 103.6207077 217.12899636 123.3069748 226.875 144.25 C227.36782471 145.30815918 227.36782471 145.30815918 227.87060547 146.38769531 C237.01813653 166.34350977 243.42600877 187.57398291 246.875 209.25 C246.99069336 209.95850098 247.10638672 210.66700195 247.22558594 211.39697266 C249.17846591 223.80674257 248.875 235.52760915 248.875 248.25 C229.405 248.25 209.935 248.25 189.875 248.25 C189.215 239.34 188.555 230.43 187.875 221.25 C178.22461868 168.86221571 151.81487559 123.43776493 107.65234375 92.7890625 C88.43448759 79.73599314 66.62034314 69.42220713 43.8125 64.625 C42.80646729 64.41335205 41.80043457 64.2017041 40.76391602 63.98364258 C14.27876056 58.57563488 -12.70434908 58.30087457 -39.125 64.25 C-39.8581543 64.40484863 -40.59130859 64.55969727 -41.34667969 64.71923828 C-75.93878161 72.04147645 -106.49481379 90.29763637 -132.125 114.25 C-135.36888914 112.82155796 -137.56322147 111.07810831 -140.08325195 108.59814453 C-140.84696609 107.85041779 -141.61068024 107.10269104 -142.39753723 106.33230591 C-143.21123276 105.52397308 -144.02492828 104.71564026 -144.86328125 103.8828125 C-145.70344284 103.05167938 -146.54360443 102.22054626 -147.40922546 101.36422729 C-149.18122329 99.60672777 -150.95043033 97.8464106 -152.71704102 96.08349609 C-155.43242594 93.38005175 -158.16589663 90.69581526 -160.90039062 88.01171875 C-162.61833337 86.30323477 -164.33516905 84.59363673 -166.05078125 82.8828125 C-166.87459793 82.07852814 -167.69841461 81.27424377 -168.54719543 80.44558716 C-169.29514877 79.69155609 -170.04310211 78.93752502 -170.8137207 78.16064453 C-171.81155327 77.17041794 -171.81155327 77.17041794 -172.82954407 76.16018677 C-174.125 74.25 -174.125 74.25 -173.93962097 72.1244812 C-171.92470045 67.48805424 -166.92367892 64.44283081 -163.125 61.25 C-162.54766113 60.75790039 -161.97032227 60.26580078 -161.37548828 59.75878906 C-116.03027136 21.23520599 -59.54562119 0.04584377 0 0 Z " fill="#FEB603" transform="translate(255.125,7.75)"/>
<path d="M0 0 C3.125 0.4375 3.125 0.4375 5.1171875 2.58618164 C7.15111153 5.4745813 8.77946693 8.34544842 10.375 11.49609375 C10.66978745 12.07318588 10.96457489 12.65027802 11.26829529 13.24485779 C11.89848406 14.47932503 12.5262675 15.71502269 13.15182495 16.95184326 C14.80851009 20.22573031 16.48447714 23.48971061 18.16015625 26.75390625 C18.49596207 27.40879028 18.83176788 28.06367432 19.17774963 28.73840332 C22.2151704 34.64643104 25.36332701 40.49048327 28.5625 46.3125 C29.04686523 47.19510498 29.53123047 48.07770996 30.03027344 48.98706055 C30.95632903 50.67298523 31.88290048 52.35862669 32.81005859 54.04394531 C34.84638395 57.75061702 36.86818355 61.46477594 38.875 65.1875 C39.21072021 65.80222168 39.54644043 66.41694336 39.89233398 67.05029297 C42.125 71.20708924 42.125 71.20708924 42.125 73.4375 C42.85475037 73.48693756 43.58450073 73.53637512 44.33636475 73.58731079 C51.61686615 74.130092 58.71072084 75.09408128 65.890625 76.3984375 C67.50623322 76.68528915 67.50623322 76.68528915 69.15447998 76.97793579 C72.56225715 77.58433772 75.96861127 78.19835228 79.375 78.8125 C81.64184035 79.21663265 83.90876691 79.62028205 86.17578125 80.0234375 C91.53909424 80.97886249 96.89997504 81.9471468 102.26000977 82.92077637 C104.90304167 83.39746806 107.5477202 83.86323518 110.19335938 84.32519531 C111.64456591 84.58378994 113.09574067 84.842563 114.546875 85.1015625 C115.7647168 85.31506348 116.98255859 85.52856445 118.23730469 85.74853516 C121.125 86.4375 121.125 86.4375 124.125 88.4375 C124.7163345 92.58661564 124.7307557 94.62941945 122.18359375 98.02734375 C121.31863281 98.80207031 120.45367187 99.57679688 119.5625 100.375 C116.60149325 103.0746089 113.80620957 105.7589125 111.22265625 108.81640625 C104.64293966 116.45167318 97.24388465 123.37009839 90.0859375 130.45605469 C77.04917933 141.43092716 77.04917933 141.43092716 69.125 155.4375 C69.31541537 157.76264204 69.59692722 160.08078528 69.92944336 162.38989258 C70.02683304 163.08148972 70.12422272 163.77308685 70.2245636 164.48564148 C70.54770495 166.76882159 70.88142334 169.05033169 71.21484375 171.33203125 C71.44128109 172.92368829 71.66690082 174.51546184 71.89173889 176.10734558 C72.48541126 180.29936458 73.08739055 184.49014254 73.69195557 188.68060303 C74.65761184 195.37657277 75.6151321 202.07367438 76.56424141 208.7720089 C76.89673117 211.10514682 77.23546087 213.43731953 77.57469177 215.76948547 C77.78043164 217.21192932 77.98593408 218.65440707 78.19116211 220.09692383 C78.46215981 221.97411858 78.46215981 221.97411858 78.7386322 223.88923645 C79.75756851 233.2467828 79.75756851 233.2467828 78.0625 236.4375 C74.94247108 238.04783751 72.50481048 237.12198046 69.125 236.4375 C66.59540687 235.36924085 64.23480639 234.2742802 61.8125 233.0078125 C61.12953857 232.66142731 60.44657715 232.31504211 59.74291992 231.9581604 C57.53233573 230.83507229 55.3288664 229.69870442 53.125 228.5625 C50.82990025 227.39348569 48.53288094 226.22831129 46.2355957 225.06359863 C44.70495397 224.28754555 43.17484159 223.51044752 41.64526367 222.7322998 C34.30780806 219.00467497 26.89757826 215.44364378 19.45703125 211.92626953 C18.62558594 211.53294434 17.79414063 211.13961914 16.9375 210.734375 C16.14472656 210.36376953 15.35195313 209.99316406 14.53515625 209.61132812 C12.8340535 208.78283319 11.15572303 207.90677405 9.49609375 206.99804688 C8.19865234 206.29518555 8.19865234 206.29518555 6.875 205.578125 C5.72257812 204.9289209 5.72257812 204.9289209 4.546875 204.26660156 C0.0581535 202.72993844 -3.55635725 204.18763534 -7.67944336 206.12060547 C-9.11201164 206.84052861 -10.54027043 207.56907071 -11.96484375 208.3046875 C-12.73836685 208.69564606 -13.51188995 209.08660461 -14.30885315 209.4894104 C-15.96026246 210.32500908 -17.60987225 211.16417218 -19.2578125 212.0065918 C-23.53771655 214.19439825 -27.83029302 216.35710403 -32.12109375 218.5234375 C-32.96501678 218.95045959 -33.80893982 219.37748169 -34.67843628 219.81744385 C-43.9934249 224.52421569 -53.40334605 229.02262217 -62.84643555 233.46630859 C-64.68010834 234.34419406 -66.49200811 235.26720769 -68.30078125 236.1953125 C-71.1381921 237.56450317 -72.76995615 237.94102062 -75.875 237.4375 C-77.52563477 236.32666016 -77.52563477 236.32666016 -78.875 234.4375 C-79.07006836 231.53662109 -79.07006836 231.53662109 -78.77734375 227.8359375 C-78.72311752 227.14551361 -78.6688913 226.45508972 -78.61302185 225.7437439 C-77.7637985 215.92721234 -76.31817812 206.16733674 -74.91870117 196.41748047 C-74.43553576 193.04880516 -73.96216926 189.67885894 -73.49023438 186.30859375 C-73.18286065 184.13533612 -72.87493725 181.96215614 -72.56640625 179.7890625 C-72.42674942 178.79717926 -72.28709259 177.80529602 -72.14320374 176.78335571 C-71.35677627 171.32854127 -70.42782207 165.93177939 -69.30377197 160.53605652 C-68.70087085 157.58525244 -68.32431891 155.43105211 -68.875 152.4375 C-70.67033517 149.73509972 -72.89469195 147.53382435 -75.1875 145.25 C-76.21798462 144.18857788 -76.21798462 144.18857788 -77.26928711 143.10571289 C-79.78498173 140.52961355 -82.32759797 137.982254 -84.875 135.4375 C-85.97341008 134.33766775 -87.07171194 133.23772741 -88.16992188 132.13769531 C-95.30483804 124.99472337 -95.30483804 124.99472337 -102.46801758 117.88012695 C-107.66741442 112.72727748 -112.80816398 107.60256426 -117.51171875 101.98291016 C-119.0459666 100.1760738 -119.0459666 100.1760738 -121.8125 97.875 C-123.875 95.4375 -123.875 95.4375 -124.5 91.8125 C-123.875 88.4375 -123.875 88.4375 -121.86376953 86.82739258 C-118.13424217 85.09301917 -114.45984032 84.43470402 -110.4296875 83.82421875 C-109.59913849 83.69076553 -108.76858948 83.55731232 -107.91287231 83.41981506 C-106.12466012 83.13298178 -104.33580251 82.85014914 -102.54638672 82.57092285 C-99.71730287 82.11978599 -96.89603918 81.63405861 -94.07421875 81.13964844 C-85.01488632 79.57708804 -76.13416487 78.28248724 -66.9453125 77.87890625 C-52.56901376 77.43223973 -52.56901376 77.43223973 -40.29815674 70.89672852 C-33.3667396 62.43865502 -29.51152053 51.85277518 -25.61523438 41.76074219 C-23.32394674 35.90754379 -20.31519108 30.50426148 -17.1875 25.0625 C-16.2457617 23.36360347 -15.30678639 21.66317125 -14.37109375 19.9609375 C-13.94683105 19.19491211 -13.52256836 18.42888672 -13.08544922 17.63964844 C-11.92662844 15.53142668 -10.78837318 13.41379388 -9.66015625 11.2890625 C-9.33168701 10.6707959 -9.00321777 10.0525293 -8.66479492 9.41552734 C-7.83393139 7.84604453 -7.00660945 6.27468811 -6.1796875 4.703125 C-4.37930817 1.57671778 -3.63728886 0.55350048 0 0 Z " fill="#FBD126" transform="translate(255.875,124.5625)"/>
<path d="M0 0 C0 19.47 0 38.94 0 59 C-12.375 59.99 -12.375 59.99 -25 61 C-55.72784652 65.62768773 -84.85838853 76.57250673 -110 95 C-110.57041016 95.41636719 -111.14082031 95.83273438 -111.72851562 96.26171875 C-119.20020303 101.76182839 -126.22021588 107.66403922 -133 114 C-136.24388914 112.57155796 -138.43822147 110.82810831 -140.95825195 108.34814453 C-141.72196609 107.60041779 -142.48568024 106.85269104 -143.27253723 106.08230591 C-144.08623276 105.27397308 -144.89992828 104.46564026 -145.73828125 103.6328125 C-146.57844284 102.80167938 -147.41860443 101.97054626 -148.28422546 101.11422729 C-150.05622329 99.35672777 -151.82543033 97.5964106 -153.59204102 95.83349609 C-156.30742594 93.13005175 -159.04089663 90.44581526 -161.77539062 87.76171875 C-163.49333337 86.05323477 -165.21016905 84.34363673 -166.92578125 82.6328125 C-167.74959793 81.82852814 -168.57341461 81.02424377 -169.42219543 80.19558716 C-170.17014877 79.44155609 -170.91810211 78.68752502 -171.6887207 77.91064453 C-172.68655327 76.92041794 -172.68655327 76.92041794 -173.70454407 75.91018677 C-175 74 -175 74 -174.81462097 71.8744812 C-172.79970045 67.23805424 -167.79867892 64.19283081 -164 61 C-163.42266113 60.50790039 -162.84532227 60.01580078 -162.25048828 59.50878906 C-116.38486863 20.5430915 -60.11586061 0 0 0 Z " fill="#FCD126" transform="translate(256,8)"/>
<path d="M0 0 C3.24388914 1.42844204 5.43822147 3.17189169 7.95825195 5.65185547 C9.10382317 6.77344559 9.10382317 6.77344559 10.27253723 7.91769409 C11.49308052 9.13019333 11.49308052 9.13019333 12.73828125 10.3671875 C13.57844284 11.19832062 14.41860443 12.02945374 15.28422546 12.88577271 C17.05622329 14.64327223 18.82543033 16.4035894 20.59204102 18.16650391 C23.30742594 20.86994825 26.04089663 23.55418474 28.77539062 26.23828125 C30.49333337 27.94676523 32.21016905 29.65636327 33.92578125 31.3671875 C34.74959793 32.17147186 35.57341461 32.97575623 36.42219543 33.80441284 C37.17014877 34.55844391 37.91810211 35.31247498 38.6887207 36.08935547 C39.35394241 36.74950653 40.01916412 37.40965759 40.70454407 38.08981323 C42 40 42 40 41.81462097 42.1255188 C39.79970045 46.76194576 34.79867892 49.80716919 31 53 C30.1339917 53.73814941 30.1339917 53.73814941 29.25048828 54.49121094 C-17.40370736 94.12685287 -71.92681427 113 -133 113 C-133 93.86 -133 74.72 -133 55 C-125.08 54.505 -125.08 54.505 -117 54 C-76.84903744 48.98112968 -39.71163342 34.88510305 -9 8 C-8.12085938 7.23042969 -7.24171875 6.46085937 -6.3359375 5.66796875 C-4.21238183 3.79095592 -2.10015797 1.90310611 0 0 Z " fill="#FCD126" transform="translate(389,390)"/>
<path d="M0 0 C19.47 0 38.94 0 59 0 C59.66 7.59 60.32 15.18 61 23 C64.84520443 64.59812069 85.8790185 102.86541735 114 133 C107.4893083 140.75785115 100.41668581 147.91463913 93.2956543 155.109375 C91.71549566 156.71129169 90.14164247 158.31945129 88.57397461 159.93359375 C86.30182742 162.27231099 84.01090397 164.59103506 81.71484375 166.90625 C81.01576401 167.6331604 80.31668427 168.3600708 79.59642029 169.10900879 C78.93545853 169.76719604 78.27449677 170.4253833 77.59350586 171.10351562 C76.73129677 171.98118591 76.73129677 171.98118591 75.85166931 172.87658691 C74 174 74 174 71.3752594 173.76574707 C68.61928343 172.87726284 67.7304857 172.05492744 65.9375 169.8125 C63.81996998 167.21784411 61.70334827 164.67477173 59.4453125 162.19921875 C28.78971355 128.47859203 9.12408597 83.77303624 2 39 C1.88430664 38.29149902 1.76861328 37.58299805 1.64941406 36.85302734 C-0.30346591 24.44325743 0 12.72239085 0 0 Z " fill="#FCD126" transform="translate(8,256)"/>
<path d="M0 0 C3.01176659 1.4364522 4.85360088 2.67879273 7 5.25 C9.2182756 7.88538725 11.44140747 10.50760432 13.734375 13.078125 C29.06061856 30.3822739 41.25941742 50.06862404 51 71 C51.49282471 72.05815918 51.49282471 72.05815918 51.99560547 73.13769531 C61.14313653 93.09350977 67.55100877 114.32398291 71 136 C71.11569336 136.70850098 71.23138672 137.41700195 71.35058594 138.14697266 C73.30346591 150.55674257 73 162.27760915 73 175 C53.53 175 34.06 175 14 175 C13.01 161.635 13.01 161.635 12 148 C4.93182297 109.62989611 -9.98668212 76.71039415 -36.19091797 47.63037109 C-40 43.32299717 -40 43.32299717 -40 40 C-38.48144531 38.12068176 -38.48144531 38.12068176 -36.328125 35.98754883 C-35.52729492 35.18694534 -34.72646484 34.38634186 -33.90136719 33.56147766 C-33.02641602 32.70201035 -32.15146484 31.84254303 -31.25 30.95703125 C-30.3621582 30.0734343 -29.47431641 29.18983734 -28.55957031 28.27946472 C-26.19749372 25.93135977 -23.82914118 23.58996475 -21.45751953 21.25152588 C-19.03919125 18.86388241 -16.62933037 16.46772672 -14.21875 14.07226562 C-9.48695353 9.37360317 -4.74670259 4.68360083 0 0 Z " fill="#FCD126" transform="translate(431,81)"/>
<path d="M0 0 C19.47 0 38.94 0 59 0 C59 25.6808858 59 25.6808858 57.875 33.3125 C57.67813599 34.71242188 57.67813599 34.71242188 57.47729492 36.140625 C50.0926588 85.26823186 28.45173746 130.05146903 -4.9140625 166.6953125 C-7.67366097 169.74430706 -10.34071334 172.86340547 -13 176 C-27 162 -41 148 -55 134 C-54.04663035 132.71570856 -53.09144605 131.43276405 -52.13549805 130.15039062 C-51.60377487 129.43580688 -51.0720517 128.72122314 -50.5242157 127.98498535 C-48.75367031 125.67920497 -46.83004112 123.59168673 -44.8125 121.5 C-30.0349789 105.25714487 -19.81196117 85.3565321 -12 65 C-11.71495605 64.26023926 -11.42991211 63.52047852 -11.13623047 62.75830078 C-3.42879176 42.3460929 -1.75088668 21.88608351 0 0 Z " fill="#FEB602" transform="translate(445,256)"/>
<path d="M0 0 C14 14 28 28 42 42 C41.39687737 42.70073135 41.39687737 42.70073135 40.78157043 43.4156189 C40.24884018 44.03562775 39.71610992 44.6556366 39.16723633 45.29443359 C38.64140457 45.90596283 38.11557281 46.51749207 37.57380676 47.14755249 C15.94979882 72.60006713 0.4582012 100.58405123 -8 133 C-8.31710938 134.18851563 -8.63421875 135.37703125 -8.9609375 136.6015625 C-11.98720626 149.6354923 -12.03488445 162.48838228 -13 176 C-32.47 176 -51.94 176 -72 176 C-72 150.32557847 -72 150.32557847 -70.875 142.6875 C-70.74520752 141.75784424 -70.61541504 140.82818848 -70.48168945 139.87036133 C-62.35910742 85.57065183 -36.65669663 40.09609039 0 0 Z " fill="#FEB602" transform="translate(80,80)"/>
<path d="M0 0 C0 3 0 3 -2.40625 5.69921875 C-3.4299968 6.70302243 -4.4616054 7.69885649 -5.5 8.6875 C-6.02464844 9.19861328 -6.54929687 9.70972656 -7.08984375 10.23632812 C-8.38660904 11.49772708 -9.69246117 12.74977212 -11 14 C-11.33 13.01 -11.66 12.02 -12 11 C-8.04 7.37 -4.08 3.74 0 0 Z " fill="#FCC719" transform="translate(93,68)"/>
</svg>
