<?xml version="1.0" encoding="UTF-8"?>
<svg version="1.1" xmlns="http://www.w3.org/2000/svg" width="512" height="512">
<path d="M0 0 C29.19510698 25.08322369 53.01643473 57.35982327 62.02001953 95.34863281 C63.02162109 95.46078125 64.02322266 95.57292969 65.05517578 95.68847656 C69.04072204 96.26355538 72.70848632 97.46963095 76.45751953 98.91113281 C77.49078369 99.30486084 77.49078369 99.30486084 78.54492188 99.70654297 C86.29913626 102.7395762 93.67974269 106.43282211 101.02001953 110.34863281 C101.63119629 110.67089844 102.24237305 110.99316406 102.87207031 111.32519531 C115.16977044 117.86094304 125.65978881 125.96709738 135.87939453 135.39550781 C137.61343211 136.97765889 139.36701335 138.45810162 141.20751953 139.91113281 C144.87869908 143.09282176 147.89438812 146.64004634 151.02001953 150.34863281 C151.77283203 151.20199219 152.52564453 152.05535156 153.30126953 152.93457031 C173.52421178 176.29334854 186.32317724 204.32315868 193.02001953 234.34863281 C193.18373047 235.02845215 193.34744141 235.70827148 193.51611328 236.40869141 C199.32255855 261.15206612 198.03094024 290.83973694 192.02001953 315.34863281 C191.81103027 316.20473145 191.60204102 317.06083008 191.38671875 317.94287109 C183.93518225 347.2745747 169.39207576 374.96107424 148.39501953 396.83300781 C145.99471375 399.30489101 145.99471375 399.30489101 143.92626953 401.97753906 C141.02308982 405.58866629 137.54895661 408.36618681 134.02001953 411.34863281 C133.16537109 412.10273438 132.31072266 412.85683594 131.43017578 413.63378906 C108.07017673 433.85348646 80.04474747 446.65195695 50.02001953 453.34863281 C49.3402002 453.51234375 48.66038086 453.67605469 47.95996094 453.84472656 C4.29369362 464.09174396 -45.63379238 453.82710345 -83.47998047 430.84863281 C-93.61242885 424.52475751 -102.95200294 417.51543954 -111.73779297 409.40332031 C-113.67104359 407.63173524 -115.64287381 405.9508094 -117.66748047 404.28613281 C-121.52955657 400.97962219 -124.75785479 397.27285592 -127.97998047 393.34863281 C-128.38764648 392.85331055 -128.7953125 392.35798828 -129.21533203 391.84765625 C-136.12047387 383.40691593 -142.40729746 374.72629194 -147.97998047 365.34863281 C-148.32125977 364.7759668 -148.66253906 364.20330078 -149.01416016 363.61328125 C-153.58013795 355.82271818 -157.1698977 347.77124934 -160.41748047 339.34863281 C-160.75980713 338.46425537 -161.10213379 337.57987793 -161.45483398 336.66870117 C-163.24592628 331.86736971 -164.48754687 327.45329658 -164.97998047 322.34863281 C-165.54201172 322.22488281 -166.10404297 322.10113281 -166.68310547 321.97363281 C-194.14968893 315.23336693 -220.12690047 300.24758961 -240.46435547 280.72363281 C-242.93623866 278.32332703 -242.93623866 278.32332703 -245.60888672 276.25488281 C-249.22001394 273.3517031 -251.99753447 269.87756989 -254.97998047 266.34863281 C-255.73408203 265.49398438 -256.48818359 264.63933594 -257.26513672 263.75878906 C-285.83036753 230.75711987 -300.74263661 188.02736483 -300.41748047 144.59863281 C-300.41443909 143.72944214 -300.41139771 142.86025146 -300.40826416 141.96472168 C-300.33679462 128.1009009 -299.4598842 114.82559332 -295.97998047 101.34863281 C-295.77099121 100.51106445 -295.56200195 99.67349609 -295.34667969 98.81054688 C-287.59921885 68.52871117 -272.50228607 40.29573601 -250.55712891 17.9609375 C-248.91023044 16.27732799 -247.29275023 14.56832506 -245.67529297 12.85644531 C-222.33224555 -11.53869253 -191.66650315 -27.67199208 -158.97998047 -35.65136719 C-158.12259277 -35.86164551 -157.26520508 -36.07192383 -156.38183594 -36.28857422 C-102.91408626 -48.70441681 -42.30056238 -35.05119174 0 0 Z " fill="#FECA51" transform="translate(307.97998046875,47.6513671875)"/>
<path d="M0 0 C19.72789585 0 19.72789585 0 25.875 1.1875 C26.60855713 1.3213208 27.34211426 1.4551416 28.09790039 1.59301758 C62.03577286 8.04693018 93.64126098 23.12021843 118 48 C121.45007911 46.53023536 123.56493084 44.59081481 126.125 41.875 C127.37827763 40.54605277 128.66285567 39.24452827 130 38 C132 38 132 38 133.375 39.328125 C135.25318873 41.54944436 137.12924278 43.77241316 139 46 C139.75796875 46.85980469 140.5159375 47.71960938 141.296875 48.60546875 C161.51725163 71.94905642 174.30658825 99.98990679 181 130 C181.24556641 131.019729 181.24556641 131.019729 181.49609375 132.06005859 C187.30253902 156.80343331 186.01092071 186.49110413 180 211 C179.79101074 211.85609863 179.58202148 212.71219727 179.36669922 213.59423828 C170.99966984 246.52962359 153.9078429 275.0921571 130 299 C126.37 295.37 122.74 291.74 119 288 C120.90075827 284.19848347 122.59745538 282.1469531 125.5 279.125 C153.25739622 249.31074982 167.21170938 208.3386025 167.25 168.0625 C167.25100708 167.32767395 167.25201416 166.5928479 167.25305176 165.83575439 C167.24265863 154.61943424 166.62860392 143.93363267 164 133 C163.58234375 131.14955078 163.58234375 131.14955078 163.15625 129.26171875 C155.93900011 99.8016513 141.52872613 72.52872613 120 51 C117.89179203 51.3185177 117.89179203 51.3185177 116 52 C115.15964992 53.7762101 115.15964992 53.7762101 115 56 C116.46735739 58.11608523 116.46735739 58.11608523 118.6875 60.1875 C147.10798415 90.2875773 161.40565499 131.7552117 160.2890625 172.8515625 C159.6098119 187.44688834 157.90400116 202.18781326 153 216 C152.73590332 216.76844238 152.47180664 217.53688477 152.19970703 218.32861328 C146.01966673 236.1718142 137.98226593 252.33307482 126 267 C125.53352051 267.58249512 125.06704102 268.16499023 124.58642578 268.76513672 C123.11153131 270.60379657 121.62169978 272.42906065 120.125 274.25 C119.66037354 274.82403564 119.19574707 275.39807129 118.71704102 275.98950195 C117.5447982 277.38525383 116.27833081 278.70071295 115 280 C112 280 112 280 109.82348633 278.1640625 C109.00130615 277.32617188 108.17912598 276.48828125 107.33203125 275.625 C106.43935547 274.72265625 105.54667969 273.8203125 104.62695312 272.890625 C103.68863843 271.9272427 102.7504895 270.96369892 101.8125 270 C100.86332231 269.03577654 99.91346044 268.07222608 98.96289062 267.109375 C96.63509681 264.74613254 94.31456867 262.37618518 92 260 C88.0672873 261.85486328 84.91327097 264.3903937 81.5625 267.125 C53.46882937 289.53536179 20.23547595 299.19091325 -15.53271484 295.75683594 C-20.1056848 295.14977793 -24.52707515 294.13432978 -29 293 C-30.17433594 292.75636719 -31.34867187 292.51273437 -32.55859375 292.26171875 C-52.56329958 287.7181311 -70.92436397 277.00945921 -85.78125 263.04296875 C-87.99135925 260.94967213 -87.99135925 260.94967213 -90.5078125 259.05859375 C-95.02661111 255.3259811 -98.4159777 250.60891602 -102 246 C-102.58910156 245.24976563 -103.17820313 244.49953125 -103.78515625 243.7265625 C-124.67701613 215.57441089 -130.85301567 182.84981072 -127.3125 148.5 C-124.08474068 127.31096775 -115.27503347 106.84242846 -102 90 C-101.33145996 89.14849365 -101.33145996 89.14849365 -100.64941406 88.27978516 C-81.63006589 64.33263745 -55.74275561 48.83863512 -26 42 C-24.99582031 41.75507813 -23.99164063 41.51015625 -22.95703125 41.2578125 C-15.06664379 39.55619275 -8.43647621 40 0 40 C0 26.8 0 13.6 0 0 Z " fill="#FEBF51" transform="translate(320,152)"/>
<path d="M0 0 C6.19237115 5.28299638 11.94242844 10.99089269 17.54980469 16.88500977 C14.73563195 20.24074152 11.93492498 23.50864221 8.79980469 26.57250977 C5.62071345 29.83990909 4.67679464 32.12307007 3.92480469 36.63500977 C4.14514212 43.49852069 7.93968593 49.24255697 11.10595703 55.14672852 C13.83110217 60.31501189 16.42166072 65.55219127 19.02947998 70.78036499 C19.97890639 72.68070006 20.93300705 74.5786239 21.88818359 76.47607422 C22.47647949 77.64871826 23.06477539 78.8213623 23.67089844 80.02954102 C24.20126709 81.0850415 24.73163574 82.14054199 25.27807617 83.22802734 C26.54980469 85.88500977 26.54980469 85.88500977 27.54980469 88.88500977 C22.39058726 89.10821212 17.2341996 89.27111201 12.07128906 89.37939453 C10.3172103 89.42454102 8.56346818 89.48587898 6.81054688 89.56396484 C-7.7394463 90.19567567 -7.7394463 90.19567567 -11.81054688 87.07666016 C-13.36834511 84.73823192 -14.41806638 82.4929263 -15.45019531 79.88500977 C-16.17670421 78.71354938 -16.93506526 77.5609192 -17.73144531 76.43579102 C-18.46363281 75.3671582 -19.19582031 74.29852539 -19.95019531 73.19750977 C-37.98111197 47.80483735 -65.54644773 31.68024433 -95.95019531 26.07250977 C-127.30204504 20.9544726 -159.60993995 27.58376742 -185.6015625 46.06518555 C-211.35258448 65.12835218 -230.03069841 93.00017542 -234.93847656 125.07641602 C-238.93761315 157.69946121 -231.57060566 190.19556679 -211.70019531 216.51000977 C-200.8896483 230.30162809 -187.14199083 243.73540089 -170.45019531 249.88500977 C-170.42441406 249.21598633 -170.39863281 248.54696289 -170.37207031 247.85766602 C-168.92511918 223.35815254 -159.5025264 196.02484755 -145.28613281 175.96313477 C-144.22295104 173.87528659 -144.22295104 173.87528659 -144.94628906 171.51000977 C-146.90437712 168.09225607 -149.36632474 165.39531126 -152.13769531 162.63500977 C-152.70423828 162.0687085 -153.27078125 161.50240723 -153.85449219 160.91894531 C-161.15339404 153.90298511 -169.93907405 148.39763978 -179.45019531 144.88500977 C-179.45019531 144.22500977 -179.45019531 143.56500977 -179.45019531 142.88500977 C-178.928125 142.6774707 -178.40605469 142.46993164 -177.86816406 142.25610352 C-147.91756812 129.71986458 -131.75952573 100.37296056 -117.45019531 72.88500977 C-116.79019531 72.88500977 -116.13019531 72.88500977 -115.45019531 72.88500977 C-115.19963379 73.38202393 -114.94907227 73.87903809 -114.69091797 74.39111328 C-107.18644515 89.1873471 -98.97912395 103.02019299 -88.45019531 115.88500977 C-89.90287266 119.50492466 -91.644036 120.97061853 -94.88769531 123.07250977 C-102.68155367 128.32489257 -109.8790543 134.16050281 -116.45019531 140.88500977 C-115.04174814 144.10025282 -113.34674746 146.20684844 -110.82519531 148.63500977 C-110.19355469 149.24860352 -109.56191406 149.86219727 -108.91113281 150.49438477 C-108.42902344 150.95329102 -107.94691406 151.41219727 -107.45019531 151.88500977 C-108.99557428 155.53008842 -111.22111316 157.91865525 -113.95019531 160.76000977 C-133.39853373 181.64949172 -145.86951715 208.32408354 -152.45019531 235.88500977 C-152.62953613 236.62170898 -152.80887695 237.3584082 -152.99365234 238.11743164 C-157.85149371 259.13109299 -157.83129042 285.00636073 -152.45019531 305.88500977 C-152.08188393 307.4394314 -151.7147608 308.99413491 -151.34863281 310.54907227 C-140.85856697 353.79462835 -114.6205153 390.98888919 -76.70019531 414.51000977 C-48.959932 431.27938219 -20.57546225 437.89841881 11.54980469 439.88500977 C11.54980469 445.16500977 11.54980469 450.44500977 11.54980469 455.88500977 C-32.71039003 457.7639803 -76.90293631 440.70724836 -109.76269531 411.19750977 C-110.56964844 410.45243164 -111.37660156 409.70735352 -112.20800781 408.93969727 C-114.14125844 407.1681122 -116.11308865 405.48718635 -118.13769531 403.82250977 C-121.99977141 400.51599914 -125.22806963 396.80923287 -128.45019531 392.88500977 C-128.85786133 392.3896875 -129.26552734 391.89436523 -129.68554688 391.3840332 C-136.59068872 382.94329288 -142.8775123 374.2626689 -148.45019531 364.88500977 C-148.79147461 364.31234375 -149.13275391 363.73967773 -149.484375 363.1496582 C-154.0503528 355.35909513 -157.64011254 347.3076263 -160.88769531 338.88500977 C-161.23002197 338.00063232 -161.57234863 337.11625488 -161.92504883 336.20507812 C-163.71614113 331.40374666 -164.95776172 326.98967353 -165.45019531 321.88500977 C-166.01222656 321.76125977 -166.57425781 321.63750977 -167.15332031 321.51000977 C-194.61990377 314.76974389 -220.59711531 299.78396656 -240.93457031 280.26000977 C-243.40645351 277.85970399 -243.40645351 277.85970399 -246.07910156 275.79125977 C-249.69022879 272.88808005 -252.46774931 269.41394685 -255.45019531 265.88500977 C-256.20429688 265.03036133 -256.95839844 264.17571289 -257.73535156 263.29516602 C-286.30058237 230.29349683 -301.21285145 187.56374178 -300.88769531 144.13500977 C-300.88465393 143.26581909 -300.88161255 142.39662842 -300.878479 141.50109863 C-300.80700946 127.63727785 -299.93009904 114.36197027 -296.45019531 100.88500977 C-296.24120605 100.04744141 -296.0322168 99.20987305 -295.81689453 98.34692383 C-288.06943369 68.06508813 -272.97250092 39.83211296 -251.02734375 17.49731445 C-249.38044529 15.81370494 -247.76296507 14.10470202 -246.14550781 12.39282227 C-222.80246039 -12.00231558 -192.136718 -28.13561513 -159.45019531 -36.11499023 C-158.59280762 -36.32526855 -157.73541992 -36.53554688 -156.85205078 -36.75219727 C-102.94768284 -49.26942777 -42.56995478 -35.25291072 0 0 Z " fill="#D0013E" transform="translate(308.4501953125,48.114990234375)"/>
<path d="M0 0 C19.72789585 0 19.72789585 0 25.875 1.1875 C26.60855713 1.3213208 27.34211426 1.4551416 28.09790039 1.59301758 C62.03577286 8.04693018 93.64126098 23.12021843 118 48 C121.45007911 46.53023536 123.56493084 44.59081481 126.125 41.875 C127.37827763 40.54605277 128.66285567 39.24452827 130 38 C132 38 132 38 133.375 39.328125 C135.25318873 41.54944436 137.12924278 43.77241316 139 46 C139.75796875 46.85980469 140.5159375 47.71960938 141.296875 48.60546875 C161.51725163 71.94905642 174.30658825 99.98990679 181 130 C181.24556641 131.019729 181.24556641 131.019729 181.49609375 132.06005859 C187.30253902 156.80343331 186.01092071 186.49110413 180 211 C179.79101074 211.85609863 179.58202148 212.71219727 179.36669922 213.59423828 C170.99966984 246.52962359 153.9078429 275.0921571 130 299 C126.37 295.37 122.74 291.74 119 288 C120.90075827 284.19848347 122.59745538 282.1469531 125.5 279.125 C153.25739622 249.31074982 167.21170938 208.3386025 167.25 168.0625 C167.25100708 167.32767395 167.25201416 166.5928479 167.25305176 165.83575439 C167.24265863 154.61943424 166.62860392 143.93363267 164 133 C163.58234375 131.14955078 163.58234375 131.14955078 163.15625 129.26171875 C155.93900011 99.8016513 141.52872613 72.52872613 120 51 C117.89179203 51.3185177 117.89179203 51.3185177 116 52 C115.15964992 53.7762101 115.15964992 53.7762101 115 56 C116.46735739 58.11608523 116.46735739 58.11608523 118.6875 60.1875 C147.10798415 90.2875773 161.40565499 131.7552117 160.2890625 172.8515625 C159.6098119 187.44688834 157.90400116 202.18781326 153 216 C152.73590332 216.76844238 152.47180664 217.53688477 152.19970703 218.32861328 C146.01966673 236.1718142 137.98226593 252.33307482 126 267 C125.53352051 267.58249512 125.06704102 268.16499023 124.58642578 268.76513672 C123.11153131 270.60379657 121.62169978 272.42906065 120.125 274.25 C119.66037354 274.82403564 119.19574707 275.39807129 118.71704102 275.98950195 C117.5447982 277.38525383 116.27833081 278.70071295 115 280 C112 280 112 280 109.82348633 278.1640625 C109.00130615 277.32617188 108.17912598 276.48828125 107.33203125 275.625 C106.43935547 274.72265625 105.54667969 273.8203125 104.62695312 272.890625 C103.68863843 271.9272427 102.7504895 270.96369892 101.8125 270 C100.86332231 269.03577654 99.91346044 268.07222608 98.96289062 267.109375 C96.63509681 264.74613254 94.31456867 262.37618518 92 260 C88.0672873 261.85486328 84.91327097 264.3903937 81.5625 267.125 C53.46882937 289.53536179 20.23547595 299.19091325 -15.53271484 295.75683594 C-20.1056848 295.14977793 -24.52707515 294.13432978 -29 293 C-30.17433594 292.75636719 -31.34867187 292.51273437 -32.55859375 292.26171875 C-52.56329958 287.7181311 -70.92436397 277.00945921 -85.78125 263.04296875 C-87.99135925 260.94967213 -87.99135925 260.94967213 -90.5078125 259.05859375 C-95.02661111 255.3259811 -98.4159777 250.60891602 -102 246 C-102.58910156 245.24976563 -103.17820313 244.49953125 -103.78515625 243.7265625 C-124.67701613 215.57441089 -130.85301567 182.84981072 -127.3125 148.5 C-124.08474068 127.31096775 -115.27503347 106.84242846 -102 90 C-101.33145996 89.14849365 -101.33145996 89.14849365 -100.64941406 88.27978516 C-81.63006589 64.33263745 -55.74275561 48.83863512 -26 42 C-24.99582031 41.75507813 -23.99164063 41.51015625 -22.95703125 41.2578125 C-15.06664379 39.55619275 -8.43647621 40 0 40 C0 26.8 0 13.6 0 0 Z M-90.61816406 88.41992188 C-102.98746178 102.56375488 -112.17576906 119.77555778 -116.52832031 138.04150391 C-116.96729742 139.8642132 -117.46197712 141.67325858 -117.9609375 143.48046875 C-122.0821745 160.21117859 -121.68621534 179.44707807 -117 196 C-116.48953125 197.91039062 -116.48953125 197.91039062 -115.96875 199.859375 C-107.53530084 229.91065118 -88.07406154 256.13237705 -60.94042969 271.91650391 C-50.39309495 277.80591905 -39.76035324 282.18288116 -28 285 C-27.15824219 285.21269531 -26.31648438 285.42539062 -25.44921875 285.64453125 C4.34602598 292.79744838 37.06400981 286.57147846 63.03808594 270.75927734 C70.98619667 265.60249143 78.15334263 259.53713398 85 253 C85.59941406 252.46375 86.19882812 251.9275 86.81640625 251.375 C106.50694517 233.10071794 118.73523835 203.48387482 120 177 C120.04769531 176.1538916 120.09539062 175.3077832 120.14453125 174.43603516 C121.77327546 141.55285298 110.43078923 110.87329843 88.56640625 86.39501953 C73.26254029 69.63438313 53.72541875 58.27567201 32 52 C30.22109375 51.47599609 30.22109375 51.47599609 28.40625 50.94140625 C-14.69361437 39.02963181 -61.16085138 56.11190151 -90.61816406 88.41992188 Z " fill="#FEB845" transform="translate(320,152)"/>
<path d="M0 0 C9.77752304 8.84916261 20.07173845 19.9648025 25.11572266 32.35058594 C25.11572266 33.34058594 25.11572266 34.33058594 25.11572266 35.35058594 C24.4421875 35.4758667 23.76865234 35.60114746 23.07470703 35.73022461 C-1.26423035 40.30310778 -24.66351084 46.36522789 -45.81005859 59.73242188 C-50.28386246 62.45304205 -50.28386246 62.45304205 -53.01318359 61.98730469 C-55.7123326 59.62625368 -57.80032478 56.93277962 -59.88427734 54.03808594 C-60.35341553 53.39234619 -60.82255371 52.74660645 -61.3059082 52.08129883 C-65.36501847 46.3516957 -68.95335058 40.37552036 -72.44677734 34.28808594 C-72.95917969 33.39629639 -73.47158203 32.50450684 -73.99951172 31.58569336 C-76.42954108 27.26078073 -78.54899791 23.16233254 -79.88427734 18.35058594 C-80.54427734 18.35058594 -81.20427734 18.35058594 -81.88427734 18.35058594 C-82.12146484 19.16527344 -82.35865234 19.97996094 -82.60302734 20.81933594 C-84.15069211 25.08485104 -86.17322947 28.89724417 -88.38427734 32.85058594 C-88.82570068 33.64086182 -89.26712402 34.4311377 -89.72192383 35.24536133 C-101.10935342 55.26874621 -118.18996306 80.72256391 -140.88427734 88.35058594 C-141.87427734 88.35058594 -142.86427734 88.35058594 -143.88427734 88.35058594 C-143.88427734 89.01058594 -143.88427734 89.67058594 -143.88427734 90.35058594 C-142.02802734 90.84558594 -142.02802734 90.84558594 -140.13427734 91.35058594 C-130.16237903 94.75752156 -122.56988553 101.316299 -115.19677734 108.60058594 C-114.58423096 109.20298096 -113.97168457 109.80537598 -113.34057617 110.42602539 C-112.77363037 111.00441162 -112.20668457 111.58279785 -111.62255859 112.17871094 C-111.11764893 112.69336914 -110.61273926 113.20802734 -110.0925293 113.73828125 C-108.65584871 115.65540362 -108.14090659 116.96821591 -107.88427734 119.35058594 C-109.24935027 122.08674532 -110.67513277 124.6212602 -112.25927734 127.22558594 C-124.61452515 148.54457368 -131.07562296 171.16717883 -134.88427734 195.35058594 C-150.6497349 193.09030528 -167.42752631 175.00008394 -176.80615234 162.58886719 C-186.66706373 148.96137778 -193.57807616 134.58646658 -197.88427734 118.35058594 C-198.36380859 116.68962891 -198.36380859 116.68962891 -198.85302734 114.99511719 C-205.8357491 86.9025931 -200.19252913 55.03092287 -186.07177734 29.97558594 C-167.08668476 -1.31533148 -138.87365957 -20.65206851 -103.63427734 -29.46191406 C-66.45092232 -36.58213098 -28.08363113 -24.58318372 0 0 Z " fill="#FEFBEC" transform="translate(272.88427734375,102.6494140625)"/>
<path d="M0 0 C9.8957931 4.15845688 16.39523724 16.26254603 22 25 C22.4036377 25.6276123 22.80727539 26.25522461 23.22314453 26.90185547 C45 61.22231585 45 61.22231585 45 77 C46.00160156 77.11214844 47.00320313 77.22429687 48.03515625 77.33984375 C52.02070251 77.91492257 55.68846679 79.12099814 59.4375 80.5625 C60.47076416 80.95622803 60.47076416 80.95622803 61.52490234 81.35791016 C69.27911673 84.39094339 76.65972316 88.08418929 84 92 C84.61117676 92.32226562 85.22235352 92.64453125 85.85205078 92.9765625 C101.10130136 101.08094412 113.81749751 111.81749751 126 124 C122.37 127.63 118.74 131.26 115 135 C111.19848347 133.09924173 109.1469531 131.40254462 106.125 128.5 C75.55819657 100.04196839 35.84834884 88.40284405 -5 86 C-5 99.2 -5 112.4 -5 126 C-8.114375 126.2475 -11.22875 126.495 -14.4375 126.75 C-41.82944373 129.23843356 -66.86074382 139.32913663 -88 157 C-88.77730469 157.64839844 -89.55460937 158.29679688 -90.35546875 158.96484375 C-91.91940649 160.29153744 -93.46323266 161.64192654 -95 163 C-98.56764285 161.48623919 -100.83706287 159.39486871 -103.546875 156.6484375 C-104.39121094 155.79765625 -105.23554688 154.946875 -106.10546875 154.0703125 C-106.97816406 153.18085938 -107.85085937 152.29140625 -108.75 151.375 C-109.63816406 150.4778125 -110.52632812 149.580625 -111.44140625 148.65625 C-113.63216969 146.44192996 -115.81812763 144.22307565 -118 142 C-121.99634779 145.10113252 -125.16810689 148.38079554 -128.25 152.375 C-128.96506714 153.29756592 -128.96506714 153.29756592 -129.69458008 154.23876953 C-146.09715772 175.69901354 -156.62899427 199.55276001 -162 226 C-162.37318359 227.82724609 -162.37318359 227.82724609 -162.75390625 229.69140625 C-169.28211196 269.08889942 -159.31691408 311.63764594 -136.6796875 344.43359375 C-132.42031021 350.25870032 -127.76308586 355.66187075 -122.84765625 360.94140625 C-121 363 -121 363 -119 366 C-119.35888035 368.96076291 -119.84658021 369.84658021 -122 372 C-125.00520472 371.89637225 -126.12443437 370.88866399 -128.375 368.875 C-162.30306336 331.71569251 -174.89729337 286.57504861 -173 237 C-172.57808678 230.52658745 -171.53300817 224.29731657 -170 218 C-169.70198486 216.75186523 -169.70198486 216.75186523 -169.39794922 215.47851562 C-162.06938864 185.68119218 -147.04996843 157.54795514 -125 136 C-126.40844718 132.78475695 -128.10344786 130.67816132 -130.625 128.25 C-131.25664062 127.63640625 -131.88828125 127.0228125 -132.5390625 126.390625 C-133.02117187 125.93171875 -133.50328125 125.4728125 -134 125 C-128.38368494 112.70266561 -112.24639069 103.65458544 -101 97 C-100.37029297 96.62375488 -99.74058594 96.24750977 -99.09179688 95.85986328 C-83.64899448 86.70386496 -67.91262345 80.00446811 -50.5 75.5625 C-49.53368652 75.31532227 -48.56737305 75.06814453 -47.57177734 74.81347656 C-41.47413826 73.35037713 -35.58398148 72.61571637 -29.31835938 72.32397461 C-28.55330078 72.21706299 -27.78824219 72.11015137 -27 72 C-26.67 71.34 -26.34 70.68 -26 70 C-21.21281308 69.97528262 -16.4256633 69.95713175 -11.63842773 69.94506836 C-10.00984042 69.94003935 -8.38125763 69.93321535 -6.75268555 69.92456055 C-4.41193528 69.91243231 -2.0712447 69.90675737 0.26953125 69.90234375 C0.99775589 69.89718246 1.72598053 69.89202118 2.47627258 69.88670349 C5.59602288 69.88635721 8.01633188 70.00544396 11 71 C9.76360873 68.62848628 8.5270402 66.25706521 7.2902832 63.88574219 C6.21435719 61.82271756 5.13867689 59.75956476 4.06323242 57.69628906 C1.31503838 52.42639827 -1.43941554 47.16000832 -4.2109375 41.90234375 C-4.96250122 40.47474731 -4.96250122 40.47474731 -5.72924805 39.01831055 C-6.6871861 37.19978391 -7.64692924 35.38220676 -8.60864258 33.56567383 C-9.04072021 32.74478271 -9.47279785 31.9238916 -9.91796875 31.078125 C-10.29719482 30.36043945 -10.6764209 29.64275391 -11.06713867 28.90332031 C-13.33379669 24.27864982 -13.57529254 20.0507301 -13 15 C-10.3230846 8.36590531 -5.44765495 4.48151102 0 0 Z " fill="#FECA51" transform="translate(325,66)"/>
<path d="M0 0 C0.66 0 1.32 0 2 0 C2.37584229 0.74552124 2.37584229 0.74552124 2.75927734 1.50610352 C10.26375016 16.30233733 18.47107136 30.13518322 29 43 C27.54732265 46.6199149 25.80615931 48.08560877 22.5625 50.1875 C14.76864165 55.4398828 7.57114101 61.27549304 1 68 C2.40844718 71.21524305 4.10344786 73.32183868 6.625 75.75 C7.25664062 76.36359375 7.88828125 76.9771875 8.5390625 77.609375 C9.02117187 78.06828125 9.50328125 78.5271875 10 79 C8.45462103 82.64507865 6.22908215 85.03364548 3.5 87.875 C-15.94833842 108.76448195 -28.41932184 135.43907377 -35 163 C-35.17934082 163.73669922 -35.35868164 164.47339844 -35.54345703 165.23242188 C-40.40129839 186.24608322 -40.38109511 212.12135097 -35 233 C-34.63168862 234.55442163 -34.26456549 236.10912515 -33.8984375 237.6640625 C-23.40837166 280.90961858 2.82968001 318.10387943 40.75 341.625 C68.49026331 358.39437242 96.87473307 365.01340904 129 367 C129 372.28 129 377.56 129 383 C84.73980528 384.87897053 40.547259 367.82223859 7.6875 338.3125 C6.88054687 337.56742187 6.07359375 336.82234375 5.2421875 336.0546875 C3.30893687 334.28310243 1.33710666 332.60217659 -0.6875 330.9375 C-4.5495761 327.63098937 -7.77787432 323.92422311 -11 320 C-11.40766602 319.50467773 -11.81533203 319.00935547 -12.23535156 318.49902344 C-19.1404934 310.05828312 -25.42731699 301.37765913 -31 292 C-31.3412793 291.42733398 -31.68255859 290.85466797 -32.03417969 290.26464844 C-42.48565521 272.43213088 -48.43214721 253.27314802 -52 233 C-52.16371094 232.10152344 -52.32742187 231.20304688 -52.49609375 230.27734375 C-55.61269998 212.58223236 -55.3197694 194.89560728 -55 177 C-54.34 177 -53.68 177 -53 177 C-52.96132812 175.99646484 -52.96132812 175.99646484 -52.921875 174.97265625 C-51.47492387 150.47314278 -42.05233109 123.13983778 -27.8359375 103.078125 C-26.77275573 100.99027682 -26.77275573 100.99027682 -27.49609375 98.625 C-29.45418181 95.2072463 -31.91612943 92.51030149 -34.6875 89.75 C-35.53731445 88.9005481 -35.53731445 88.9005481 -36.40429688 88.03393555 C-43.70319873 81.01797534 -52.48887874 75.51263001 -62 72 C-62 71.34 -62 70.68 -62 70 C-61.47792969 69.79246094 -60.95585937 69.58492188 -60.41796875 69.37109375 C-30.4673728 56.83485482 -14.30933042 27.4879508 0 0 Z " fill="#FEAE3E" transform="translate(191,121)"/>
<path d="M0 0 C3.00520472 0.10362775 4.12443437 1.11133601 6.375 3.125 C26.1567736 24.79075204 39.15938962 49.55133257 46.8125 77.8125 C47.00755127 78.52792969 47.20260254 79.24335938 47.40356445 79.98046875 C50.543157 92.25631717 51.38058512 104.57464116 51.3125 117.1875 C51.30926727 118.27158142 51.30926727 118.27158142 51.30596924 119.37756348 C51.10467947 161.56929453 35.03706706 203.5040294 5.23828125 233.80859375 C4.49964844 234.53175781 3.76101563 235.25492188 3 236 C4.46976464 239.45007911 6.40918519 241.56493084 9.125 244.125 C10.45394723 245.37827763 11.75547173 246.66285567 13 248 C13 250 13 250 11.671875 251.375 C9.45055564 253.25318873 7.22758684 255.12924278 5 257 C4.14019531 257.75796875 3.28039062 258.5159375 2.39453125 259.296875 C-23.41086712 281.64968904 -55.03099064 295.01804257 -88.5 300.8125 C-89.51054443 300.99872925 -89.51054443 300.99872925 -90.54150391 301.1887207 C-99.41430661 302.57669665 -107.83298812 302 -117 302 C-117 283.52 -117 265.04 -117 246 C-112.38 245.67 -107.76 245.34 -103 245 C-77.51053725 242.04667544 -53.57285277 231.53323703 -34 215 C-33.22527344 214.35289062 -32.45054687 213.70578125 -31.65234375 213.0390625 C-30.08518542 211.71180714 -28.53888042 210.35994084 -27 209 C-23.43235715 210.51376081 -21.16293713 212.60513129 -18.453125 215.3515625 C-17.60878906 216.20234375 -16.76445312 217.053125 -15.89453125 217.9296875 C-15.02183594 218.81914062 -14.14914062 219.70859375 -13.25 220.625 C-12.36183594 221.5221875 -11.47367187 222.419375 -10.55859375 223.34375 C-8.36783031 225.55807004 -6.18187237 227.77692435 -4 230 C-0.00365221 226.89886748 3.16810689 223.61920446 6.25 219.625 C6.96506714 218.70243408 6.96506714 218.70243408 7.69458008 217.76123047 C35.42900968 181.47500523 46.36531138 138.24908379 40.4765625 93.00097656 C35.80573881 61.07343833 20.78801382 30.69710656 -1.91796875 7.68359375 C-3 6 -3 6 -2.80078125 3.91015625 C-2 2 -2 2 0 0 Z " fill="#FECA51" transform="translate(437,202)"/>
<path d="M0 0 C9.77752304 8.84916261 20.07173845 19.9648025 25.11572266 32.35058594 C25.11572266 33.34058594 25.11572266 34.33058594 25.11572266 35.35058594 C24.4421875 35.4758667 23.76865234 35.60114746 23.07470703 35.73022461 C-1.26423035 40.30310778 -24.66351084 46.36522789 -45.81005859 59.73242188 C-50.31441124 62.47161945 -50.31441124 62.47161945 -53.09130859 61.88183594 C-55.27754291 60.01472515 -56.91948953 58.03395415 -58.63427734 55.72558594 C-59.55466797 54.4996875 -59.55466797 54.4996875 -60.49365234 53.24902344 C-60.95255859 52.62253906 -61.41146484 51.99605469 -61.88427734 51.35058594 C-58.76890768 47.94344809 -55.1253286 46.58839907 -50.88427734 44.97558594 C-50.08610596 44.67104492 -49.28793457 44.36650391 -48.46557617 44.05273438 C-27.93902458 36.42520656 -6.69669887 33.2452963 15.11572266 32.35058594 C-2.75311428 4.78023399 -27.18216725 -12.89020764 -59.45263672 -20.23388672 C-89.23975079 -26.2545723 -118.62493582 -18.92347275 -143.85693359 -2.74316406 C-167.22767094 13.66679252 -183.8338352 37.24279467 -189.88427734 65.35058594 C-190.06611572 66.17751953 -190.2479541 67.00445312 -190.43530273 67.85644531 C-191.84136865 74.80509214 -192.23456701 81.52077433 -192.19677734 88.60058594 C-192.19186279 89.69814209 -192.18694824 90.79569824 -192.18188477 91.92651367 C-192.05953858 100.43490677 -191.1757147 108.1256299 -188.88427734 116.35058594 C-188.56716797 117.60226563 -188.25005859 118.85394531 -187.92333984 120.14355469 C-183.31957273 137.24356459 -174.3408082 151.99915359 -162.88427734 165.35058594 C-161.04589634 162.59301443 -160.09818311 160.18251006 -159.08447266 157.05908203 C-153.56698471 140.14878948 -145.23187911 124.76813204 -134.88427734 110.35058594 C-134.48337891 109.78887695 -134.08248047 109.22716797 -133.66943359 108.6484375 C-131.43636791 105.52763668 -129.17544683 102.42894494 -126.88427734 99.35058594 C-122.21890923 101.81481233 -118.81618793 105.08549046 -115.13427734 108.78808594 C-114.54517578 109.36107422 -113.95607422 109.9340625 -113.34912109 110.52441406 C-112.78837891 111.08451172 -112.22763672 111.64460937 -111.64990234 112.22167969 C-111.14233398 112.72626709 -110.63476562 113.23085449 -110.11181641 113.75073242 C-108.646062 115.66105235 -108.13980657 116.95651358 -107.88427734 119.35058594 C-109.24935027 122.08674532 -110.67513277 124.6212602 -112.25927734 127.22558594 C-124.61452515 148.54457368 -131.07562296 171.16717883 -134.88427734 195.35058594 C-150.6497349 193.09030528 -167.42752631 175.00008394 -176.80615234 162.58886719 C-186.66706373 148.96137778 -193.57807616 134.58646658 -197.88427734 118.35058594 C-198.36380859 116.68962891 -198.36380859 116.68962891 -198.85302734 114.99511719 C-205.8357491 86.9025931 -200.19252913 55.03092287 -186.07177734 29.97558594 C-167.08668476 -1.31533148 -138.87365957 -20.65206851 -103.63427734 -29.46191406 C-66.45092232 -36.58213098 -28.08363113 -24.58318372 0 0 Z " fill="#E3DCCA" transform="translate(272.88427734375,102.6494140625)"/>
<path d="M0 0 C1.77564331 0.00737183 1.77564331 0.00737183 3.5871582 0.01489258 C13.28732073 0.14343704 22.51466012 1.00266559 31.9375 3.3125 C32.9265332 3.55395752 32.9265332 3.55395752 33.93554688 3.80029297 C54.1581469 8.97525035 72.53100096 18.9920069 87.71875 33.26953125 C89.92885925 35.36282787 89.92885925 35.36282787 92.4453125 37.25390625 C96.96411111 40.9865189 100.3534777 45.70358398 103.9375 50.3125 C104.52660156 51.06273437 105.11570312 51.81296875 105.72265625 52.5859375 C125.79707484 79.63657248 133.66390398 112.91285524 129.01098633 146.12817383 C125.15887093 170.42257146 115.72485926 192.43526003 99.9375 211.3125 C99.15632812 212.25867188 98.37515625 213.20484375 97.5703125 214.1796875 C77.71408891 237.16082497 46.25523689 253.7003548 15.9375 256.3125 C1.33193754 257.09823508 -12.85118675 256.91647645 -27.0625 253.3125 C-28.23683594 253.06886719 -29.41117187 252.82523438 -30.62109375 252.57421875 C-50.62579958 248.0306311 -68.98686397 237.32195921 -83.84375 223.35546875 C-86.05385925 221.26217213 -86.05385925 221.26217213 -88.5703125 219.37109375 C-93.08911111 215.6384811 -96.4784777 210.92141602 -100.0625 206.3125 C-100.65160156 205.56226563 -101.24070313 204.81203125 -101.84765625 204.0390625 C-122.73951613 175.88691089 -128.91551567 143.16231072 -125.375 108.8125 C-122.14724068 87.62346775 -113.33753347 67.15492846 -100.0625 50.3125 C-99.39395996 49.46099365 -99.39395996 49.46099365 -98.71191406 48.59228516 C-79.84111119 24.83216994 -53.74075685 8.77780805 -24.0625 2.3125 C-22.81641968 2.03539185 -22.81641968 2.03539185 -21.54516602 1.75268555 C-14.33757791 0.28429195 -7.34369232 -0.03628462 0 0 Z M-88.68066406 48.73242188 C-101.04996178 62.87625488 -110.23826906 80.08805778 -114.59082031 98.35400391 C-115.02979742 100.1767132 -115.52447712 101.98575858 -116.0234375 103.79296875 C-120.1446745 120.52367859 -119.74871534 139.75957807 -115.0625 156.3125 C-114.55203125 158.22289062 -114.55203125 158.22289062 -114.03125 160.171875 C-105.59780084 190.22315118 -86.13656154 216.44487705 -59.00292969 232.22900391 C-48.45559495 238.11841905 -37.82285324 242.49538116 -26.0625 245.3125 C-25.22074219 245.52519531 -24.37898438 245.73789062 -23.51171875 245.95703125 C6.28352598 253.10994838 39.00150981 246.88397846 64.97558594 231.07177734 C72.92369667 225.91499143 80.09084263 219.84963398 86.9375 213.3125 C87.53691406 212.77625 88.13632812 212.24 88.75390625 211.6875 C108.44444517 193.41321794 120.67273835 163.79637482 121.9375 137.3125 C121.98519531 136.4663916 122.03289062 135.6202832 122.08203125 134.74853516 C123.71077546 101.86535298 112.36828923 71.18579843 90.50390625 46.70751953 C75.20004029 29.94688313 55.66291875 18.58817201 33.9375 12.3125 C32.15859375 11.78849609 32.15859375 11.78849609 30.34375 11.25390625 C-12.75611437 -0.65786819 -59.22335138 16.42440151 -88.68066406 48.73242188 Z " fill="#CA7E11" transform="translate(318.0625,191.6875)"/>
<path d="M0 0 C5.28 0 10.56 0 16 0 C16 5.28 16 10.56 16 16 C23.92 16 31.84 16 40 16 C40 21.28 40 26.56 40 32 C32.08 32 24.16 32 16 32 C16 42.56 16 53.12 16 64 C18.97 64.33 21.94 64.66 25 65 C33.89967676 67.60576121 40.43613034 73.0913531 45 81.078125 C49.08904596 88.93676021 49.09096901 97.66667508 46.9375 106.1875 C43.94541104 114.81746029 38.41407707 120.49698353 30.49609375 124.84765625 C25.67483738 127.07343188 21.34927701 128 16 128 C16 133.28 16 138.56 16 144 C10.72 144 5.44 144 0 144 C0 138.72 0 133.44 0 128 C-7.92 128 -15.84 128 -24 128 C-24 122.72 -24 117.44 -24 112 C-16.08 112 -8.16 112 0 112 C0 101.44 0 90.88 0 80 C-3.3 79.67 -6.6 79.34 -10 79 C-13.30003033 77.74794336 -16.06676361 75.95159553 -19 74 C-19.886875 73.443125 -20.77375 72.88625 -21.6875 72.3125 C-28.7257431 65.2742569 -31.82916458 56.78270885 -32.3125 47 C-32.03453655 38.74285041 -28.36997222 31.16760408 -23 25 C-15.62252034 18.60861911 -9.78005153 16 0 16 C0 10.72 0 5.44 0 0 Z " fill="#FEDE74" transform="translate(312,248)"/>
<path d="M0 0 C0.97453125 0.2165625 1.9490625 0.433125 2.953125 0.65625 C27.89912077 6.78333668 53.0838024 21.70319756 69 42 C69.70640625 42.88171875 70.4128125 43.7634375 71.140625 44.671875 C75.3760831 50.11746398 79.13280124 55.64639918 82.5625 61.625 C82.90917725 62.22908691 83.25585449 62.83317383 83.61303711 63.45556641 C86 67.73315061 86 67.73315061 86 70 C82.86914967 70.4858216 81.00484382 70.76217754 78 70 C75.40634221 67.4130269 73.82395649 64.15553036 72 61 C54.04791656 33.47124751 27.90490309 15.26058365 -4.1640625 8.03125 C-34.99571405 1.71193687 -67.52542759 7.18449155 -94.04394531 24.32080078 C-121.56365345 43.06998969 -139.36678172 69.75036618 -146.8125 102.1875 C-152.58900043 133.29173308 -145.6295365 166.57536827 -127.859375 192.67529297 C-118.93960113 205.34508844 -108.25218848 215.58187232 -95.640625 224.52734375 C-95.05692139 224.94983398 -94.47321777 225.37232422 -93.87182617 225.80761719 C-92.00555142 227.07540159 -92.00555142 227.07540159 -89.77856445 227.90332031 C-87.25688936 229.02431218 -85.7759932 229.87088043 -84 232 C-83.17435999 236.27640073 -83.32219864 240.40342053 -83.56869507 244.74032593 C-83.76954926 248.34925223 -83.83299289 251.96081639 -83.90625 255.57421875 C-83.93231575 256.65516563 -83.93231575 256.65516563 -83.95890808 257.75794983 C-84.21553735 271.18376768 -81.93225651 284.70088271 -78.55078125 297.671875 C-78 300 -78 300 -78 303 C-106.05274433 296.82324895 -132.876894 281.15818176 -153.484375 261.375 C-155.97205037 258.95710055 -155.97205037 258.95710055 -158.74609375 256.828125 C-161.01051749 254.99146935 -161.94668918 253.68115482 -163 251 C-161.35 249.35 -159.7 247.7 -158 246 C-154.37059 247.51431166 -152.23715586 249.64943929 -149.5625 252.5 C-139.33481504 262.89192515 -127.41730154 270.50817494 -115 278 C-115.144375 277.33355469 -115.28875 276.66710937 -115.4375 275.98046875 C-116.79699823 269.23018242 -117.23942141 262.87671505 -117 256 C-116.29875 256.66 -115.5975 257.32 -114.875 258 C-111.49736169 260.34966143 -110.02695637 260.68543938 -106 260 C-103.5 258.5 -103.5 258.5 -102 256 C-101.38804855 252.3282913 -101.51293494 250.71186432 -103.625 247.625 C-106.73034361 245.50029121 -108.3013396 245.39613708 -112 246 C-114.84920053 247.87769142 -114.84920053 247.87769142 -117 250 C-117.09708814 244.42282553 -117.05775925 238.92902517 -116.5 233.375 C-116.33085172 231.58356592 -116.1641034 229.79190326 -116 228 C-115.92007813 227.15824219 -115.84015625 226.31648437 -115.7578125 225.44921875 C-115.63265406 223.20004802 -115.59330837 221.21576816 -116 219 C-118.07139596 216.79045494 -118.07139596 216.79045494 -121 215 C-143.86088786 192.42922493 -156.70254677 159.9785061 -157.29833984 128.19165039 C-157.34325035 118.66365506 -156.97839443 109.34765201 -155 100 C-154.85997559 99.31083496 -154.71995117 98.62166992 -154.57568359 97.91162109 C-150.68311894 79.33806491 -142.76447139 61.92593357 -131 47 C-130.33145996 46.14849365 -130.33145996 46.14849365 -129.64941406 45.27978516 C-111.59555719 22.54828177 -86.46568031 6.20905777 -58 0 C-56.21142578 -0.44666016 -56.21142578 -0.44666016 -54.38671875 -0.90234375 C-36.56109785 -4.91912437 -17.72026795 -4.17857847 0 0 Z " fill="#A90333" transform="translate(221,67)"/>
<path d="M0 0 C9.8957931 4.15845688 16.39523724 16.26254603 22 25 C22.4036377 25.6276123 22.80727539 26.25522461 23.22314453 26.90185547 C45 61.22231585 45 61.22231585 45 77 C46.00160156 77.11214844 47.00320313 77.22429687 48.03515625 77.33984375 C52.02070251 77.91492257 55.68846679 79.12099814 59.4375 80.5625 C60.47076416 80.95622803 60.47076416 80.95622803 61.52490234 81.35791016 C69.27911673 84.39094339 76.65972316 88.08418929 84 92 C84.61117676 92.32226562 85.22235352 92.64453125 85.85205078 92.9765625 C101.10130136 101.08094412 113.81749751 111.81749751 126 124 C122.37 127.63 118.74 131.26 115 135 C111.19848347 133.09924173 109.1469531 131.40254462 106.125 128.5 C82.33213678 106.34858155 50.89362306 92.9257929 19 88 C17.31970703 87.73316406 17.31970703 87.73316406 15.60546875 87.4609375 C11.42560234 86.92656671 7.26862288 86.65735732 3.0625 86.4375 C1.89364258 86.37272461 1.89364258 86.37272461 0.70117188 86.30664062 C-1.19907117 86.20171923 -3.09951669 86.1004755 -5 86 C-5 80.72 -5 75.44 -5 70 C7.625 69.875 7.625 69.875 11 71 C9.76360873 68.62848628 8.5270402 66.25706521 7.2902832 63.88574219 C6.21435719 61.82271756 5.13867689 59.75956476 4.06323242 57.69628906 C1.31503838 52.42639827 -1.43941554 47.16000832 -4.2109375 41.90234375 C-4.71197998 40.95061279 -5.21302246 39.99888184 -5.72924805 39.01831055 C-6.6871861 37.19978391 -7.64692924 35.38220676 -8.60864258 33.56567383 C-9.04072021 32.74478271 -9.47279785 31.9238916 -9.91796875 31.078125 C-10.48680786 30.00159668 -10.48680786 30.00159668 -11.06713867 28.90332031 C-13.33379669 24.27864982 -13.57529254 20.0507301 -13 15 C-10.3230846 8.36590531 -5.44765495 4.48151102 0 0 Z " fill="#F09413" transform="translate(325,66)"/>
<path d="M0 0 C3.39116082 1.91597648 6.13614667 3.92904412 8.9375 6.625 C31.90355048 27.25296324 60.97599613 34.69046124 91 37 C91 47.56 91 58.12 91 69 C51.39065779 69 14.50829349 55.63356003 -15 29 C-16.43367431 27.76637327 -17.87040373 26.53627094 -19.3125 25.3125 C-20.199375 24.549375 -21.08625 23.78625 -22 23 C-17.47008204 17.56266945 -12.65705784 12.53541069 -7.625 7.5625 C-6.88894531 6.83095703 -6.15289062 6.09941406 -5.39453125 5.34570312 C-3.59863926 3.56147277 -1.80044015 1.77963876 0 0 Z " fill="#FEAF3E" transform="translate(229,411)"/>
<path d="M0 0 C5.43733055 4.52991796 10.46458931 9.34294216 15.4375 14.375 C16.53481445 15.47908203 16.53481445 15.47908203 17.65429688 16.60546875 C19.43852723 18.40136074 21.22036124 20.19955985 23 22 C20.26989147 25.68718551 17.53735154 29.35007727 14.61328125 32.88671875 C3.5937459 46.30099183 -4.54000815 62.22283916 -9 79 C-9.29261719 80.09828125 -9.58523437 81.1965625 -9.88671875 82.328125 C-12.29729941 92.44080484 -13.07975025 102.66488738 -14 113 C-24.56 113 -35.12 113 -46 113 C-46 97.75028372 -46 97.75028372 -44.8125 90.375 C-44.6779541 89.52800537 -44.5434082 88.68101074 -44.40478516 87.80834961 C-38.77591885 54.12573842 -23.50293964 24.6899568 0 0 Z " fill="#FEAF3E" transform="translate(206,207)"/>
<path d="M0 0 C8.42770825 5.91642145 13.60346191 13.70776992 15.71875 23.81640625 C17.19481351 35.27639935 15.51432554 47.23784453 9 57 C1.11478587 66.749261 -7.41283211 74.48256642 -20 77 C-28.55149315 77.80056532 -36.73516035 77.17305262 -43.6953125 71.65625 C-45.0625 70.3125 -45.0625 70.3125 -47 68 C-47.33 67.67 -47.66 67.34 -48 67 C-48.4750399 62.0723473 -47.48601346 59.53612725 -44.8125 55.4375 C-37.76674762 43.9365547 -33.75685275 31.20137088 -32 17.875 C-30.08253746 3.77237231 -30.08253746 3.77237231 -25.0625 -0.5 C-17.18612186 -4.35781786 -7.67611808 -4.43542232 0 0 Z " fill="#FFDE74" transform="translate(416,299)"/>
<path d="M0 0 C0.66 0 1.32 0 2 0 C2.37584229 0.74552124 2.37584229 0.74552124 2.75927734 1.50610352 C10.26375016 16.30233733 18.47107136 30.13518322 29 43 C27.54732265 46.6199149 25.80615931 48.08560877 22.5625 50.1875 C4.33996763 62.56114537 -10.4860783 78.28091254 -23 96.3125 C-23.66 97.199375 -24.32 98.08625 -25 99 C-25.66 99 -26.32 99 -27 99 C-28.4453125 97.53125 -28.4453125 97.53125 -30.125 95.5 C-31.07246094 94.39978516 -31.07246094 94.39978516 -32.0390625 93.27734375 C-33.2645195 91.85415365 -34.48869397 90.42985704 -35.7109375 89.00390625 C-42.67541837 81.44638006 -52.35361178 75.50442402 -62 72 C-62 71.34 -62 70.68 -62 70 C-61.47792969 69.79246094 -60.95585937 69.58492188 -60.41796875 69.37109375 C-30.4673728 56.83485482 -14.30933042 27.4879508 0 0 Z " fill="#A90232" transform="translate(191,121)"/>
<path d="M0 0 C2.96009799 2.61399423 4.697135 5.67524598 6.6875 9.0625 C10.33094252 15.12756595 14.4189075 20.59952511 19 26 C19.55171875 26.68578125 20.1034375 27.3715625 20.671875 28.078125 C25.45793584 33.86697954 31.06391068 38.42929448 37 43 C37.72316406 43.57363281 38.44632813 44.14726562 39.19140625 44.73828125 C66.80669072 65.4373943 101.80274876 73.05485949 135.80664062 68.22705078 C158.70670562 64.3292824 180.38448681 54.08454865 198 39 C198.8146875 38.33484375 199.629375 37.6696875 200.46875 36.984375 C212.03407244 27.24098691 221.0141015 14.3279354 228 1 C230.21811939 7.65435818 224.3892273 16.43017664 221.34448242 22.56225586 C207.46049865 49.4176775 182.77549945 69.98381243 154.3125 79.875 C120.94699464 90.15767434 87.79003864 87.37791461 56.625 71.375 C30.15864677 57.25780865 10.24709907 32.20822173 0.55859375 4.00390625 C0 2 0 2 0 0 Z " fill="#EFA43A" transform="translate(205,354)"/>
<path d="M0 0 C0.10871967 2.54283234 0.18762401 5.08095088 0.25 7.625 C0.28351563 8.33785156 0.31703125 9.05070312 0.3515625 9.78515625 C0.44729848 15.00276709 -0.47157359 17.92244762 -4 22 C-8.61749577 25.69091997 -11.6883177 26.50340228 -17.5625 26.51757812 C-18.29500977 26.5245874 -19.02751953 26.53159668 -19.78222656 26.53881836 C-22.18854382 26.55633397 -24.59367209 26.54479954 -27 26.53125 C-28.68099186 26.53394679 -30.36198221 26.53783077 -32.04296875 26.54284668 C-35.56004743 26.54873298 -39.0767188 26.54020709 -42.59375 26.52148438 C-47.09302189 26.49869501 -51.59133927 26.5118228 -56.09057617 26.53577423 C-59.55996847 26.55025591 -63.02913594 26.54561544 -66.49853516 26.53526306 C-68.15706496 26.53260231 -69.81561544 26.53584257 -71.47412109 26.54518127 C-73.79579421 26.55538646 -76.11594011 26.53979279 -78.4375 26.51757812 C-79.75621094 26.51439575 -81.07492188 26.51121338 -82.43359375 26.50793457 C-87.82074149 25.74068643 -90.85705386 23.32082186 -94.359375 19.2734375 C-96.42150129 15.15900457 -96.46229322 12.14031346 -96.25 7.625 C-96.23195312 6.88894531 -96.21390625 6.15289062 -96.1953125 5.39453125 C-96.14859176 3.59578264 -96.07686183 1.79771289 -96 0 C-71.98873262 -11.08212341 -24.01126738 -11.08212341 0 0 Z " fill="#F6F2E0" transform="translate(240,14)"/>
<path d="M0 0 C4.7092524 2.63158467 7.0799435 5.09116336 9.63671875 9.80859375 C9.96306808 10.4045787 10.28941742 11.00056366 10.62565613 11.61460876 C11.7725962 13.7320328 12.88905861 15.86346983 14 18 C14.43942932 18.84330872 14.87885864 19.68661743 15.331604 20.55548096 C18.86831473 27.36935113 22.34404241 34.21370565 25.8125 41.0625 C27.36707992 44.12753262 28.9226891 47.19203143 30.48039246 50.25547791 C31.44174651 52.14654586 32.40124508 54.0385586 33.3585968 55.93165588 C35.08587307 59.33257327 36.8019759 62.67511503 38.78808594 65.93359375 C41.27531456 70.17450895 40.55542028 75.26601085 40 80 C37.36940491 85.94743237 31.90181311 89.87325991 27 94 C17.1042069 89.84154312 10.60476276 77.73745397 5 69 C4.39454346 68.05858154 4.39454346 68.05858154 3.77685547 67.09814453 C-6.42892292 51.01377399 -21.55235119 25.74272287 -20 6 C-7.09981168 -1.22410546 -7.09981168 -1.22410546 0 0 Z " fill="#E2DCCA" transform="translate(32,224)"/>
<path d="M0 0 C5.59153287 2.53933148 9.95041889 6.69422125 14 11.25 C16.29961347 17.57393705 15.73480602 24.15754282 12.9453125 30.21875 C12.02802566 31.99116291 11.08684403 33.7513666 10.125 35.5 C9.62540771 36.45068359 9.12581543 37.40136719 8.61108398 38.38085938 C7.58377538 40.33058621 6.54693095 42.27531921 5.50048828 44.21484375 C4.13114182 46.75657893 2.79092754 49.31049866 1.46484375 51.875 C-0.54521885 55.75602334 -2.59188764 59.61604 -4.65380859 63.46972656 C-6.14457195 66.27173443 -7.61257369 69.08520267 -9.08203125 71.8984375 C-10.13724868 73.8910341 -11.19322552 75.88322875 -12.25 77.875 C-12.73331787 78.80892578 -13.21663574 79.74285156 -13.71459961 80.70507812 C-16.88361051 86.62099917 -19.84423435 90.92211718 -26 94 C-31.07924193 94.47111809 -34.33683322 93.22277557 -38.875 91 C-40.02742188 90.443125 -41.17984375 89.88625 -42.3671875 89.3125 C-43.23601563 88.879375 -44.10484375 88.44625 -45 88 C-44.46713865 80.73507343 -42.78663727 74.38048489 -40.4375 67.5 C-40.07962402 66.44554687 -39.72174805 65.39109375 -39.35302734 64.3046875 C-30.90337902 39.96614725 -17.60256459 18.8093598 0 0 Z " fill="#F6F1DF" transform="translate(57,66)"/>
<path d="M0 0 C4.05404504 1.71747721 7.24359397 4.49776736 10.625 7.25 C15.61301869 11.25114047 20.62506933 14.82589558 26.20703125 17.9765625 C28 19 28 19 29 20 C29.05143117 22.09572479 29.03507725 24.19314551 28.9921875 26.2890625 C28.97202966 27.62588 28.9529508 28.9627141 28.93481445 30.29956055 C28.92439117 31.00543304 28.9139679 31.71130554 28.90322876 32.43856812 C28.66983978 50.51549108 29.86936439 68.10402342 34.44921875 85.671875 C35 88 35 88 35 91 C6.94725567 84.82324895 -19.876894 69.15818176 -40.484375 49.375 C-42.97205037 46.95710055 -42.97205037 46.95710055 -45.74609375 44.828125 C-48.01051749 42.99146935 -48.94668918 41.68115482 -50 39 C-47.525 36.525 -47.525 36.525 -45 34 C-41.37059 35.51431166 -39.23715586 37.64943929 -36.5625 40.5 C-26.33481504 50.89192515 -14.41730154 58.50817494 -2 66 C-2.144375 65.33355469 -2.28875 64.66710937 -2.4375 63.98046875 C-3.79699823 57.23018242 -4.23942141 50.87671505 -4 44 C-3.29875 44.66 -2.5975 45.32 -1.875 46 C1.50263831 48.34966143 2.97304363 48.68543938 7 48 C9.5 46.5 9.5 46.5 11 44 C11.61195145 40.3282913 11.48706506 38.71186432 9.375 35.625 C6.26965639 33.50029121 4.6986604 33.39613708 1 34 C-1.84920053 35.87769142 -1.84920053 35.87769142 -4 38 C-4.22713684 24.95225045 -2.54370834 12.75053801 0 0 Z " fill="#910029" transform="translate(108,279)"/>
<path d="M0 0 C5.57478915 4.34383783 8.43736205 9.38319807 9.65234375 16.30859375 C8.76947661 21.16436303 6.72639971 23.56119229 3.02734375 26.74609375 C0.38767717 28.54777094 -2.31318638 30.21473905 -5.0390625 31.8828125 C-13.65573346 37.35571802 -20.07600972 43.57524817 -25.90234375 51.94921875 C-31.38682828 59.35844691 -31.38682828 59.35844691 -35.78515625 60.43359375 C-42.91308366 58.89619764 -47.53093118 53.52270836 -51.74609375 47.87109375 C-55.92282181 40.63497889 -56.28816666 32.0081354 -54.28515625 23.99609375 C-49.87627231 12.23906991 -42.68513518 3.69227781 -31.22265625 -1.62890625 C-21.27582801 -5.86551828 -9.25983837 -5.88595667 0 0 Z " fill="#FFDE74" transform="translate(278.97265625,236.25390625)"/>
<path d="M0 0 C5.28 0 10.56 0 16 0 C17.83360594 43.19160653 1.4116454 88.08162223 -27.56518555 120.26123047 C-30.95816832 123.92960082 -34.46670539 127.46670539 -38 131 C-41.63 127.37 -45.26 123.74 -49 120 C-47.09924173 116.19848347 -45.40254462 114.1469531 -42.5 111.125 C-23.54463687 90.76502336 -12.17583499 65.59313848 -5 39 C-4.6803125 37.84371094 -4.360625 36.68742187 -4.03125 35.49609375 C-1.18483113 23.89693685 -0.79246074 11.87758803 0 0 Z " fill="#F09413" transform="translate(488,320)"/>
<path d="M0 0 C3.80151653 1.90075827 5.8530469 3.59745538 8.875 6.5 C28.61457632 24.87776358 53.95700163 37.4844312 80 44 C81.16144531 44.29648437 82.32289063 44.59296875 83.51953125 44.8984375 C95.50408124 47.61547352 107.76902523 48.17815585 120 49 C120 54.28 120 59.56 120 65 C74.34353302 66.93824624 29.77375994 48.76790248 -3.74609375 18.140625 C-6.20628441 15.80408343 -8.60083717 13.39916283 -11 11 C-7.37 7.37 -3.74 3.74 0 0 Z " fill="#F09413" transform="translate(200,439)"/>
<path d="M0 0 C4.17443363 3.50074982 8.3145494 6.97950843 12 11 C12 13 12 13 10.671875 14.375 C8.45055564 16.25318873 6.22758684 18.12924278 4 20 C2.71029297 21.13695312 2.71029297 21.13695312 1.39453125 22.296875 C-31.42138453 50.72224757 -74.67275495 66.31000629 -118 65 C-118 59.72 -118 54.44 -118 49 C-116.45054687 48.91363281 -114.90109375 48.82726562 -113.3046875 48.73828125 C-68.92425056 45.93456476 -32.65698429 29.96508537 0 0 Z " fill="#FFAF3F" transform="translate(438,439)"/>
<path d="M0 0 C2.54683149 2.46000769 4.72433026 5.29026733 7 8 C8.13695312 9.28970703 8.13695312 9.28970703 9.296875 10.60546875 C37.72224757 43.42138453 53.31000629 86.67275495 52 130 C46.72 130 41.44 130 36 130 C35.91363281 128.45054687 35.82726562 126.90109375 35.73828125 125.3046875 C32.93456476 80.92425056 16.96508537 44.65698429 -13 12 C-2.93659942 0 -2.93659942 0 0 0 Z " fill="#FFAF3F" transform="translate(452,190)"/>
<path d="M0 0 C0.66 0 1.32 0 2 0 C3.79498186 3.56083895 5.58539784 7.12395469 7.375 10.6875 C7.88289063 11.69490234 8.39078125 12.70230469 8.9140625 13.74023438 C9.64882812 15.20493164 9.64882812 15.20493164 10.3984375 16.69921875 C10.84880371 17.59471436 11.29916992 18.49020996 11.76318359 19.4128418 C13 22 13 22 13.85009766 24.76879883 C14.22956543 25.50509521 14.6090332 26.2413916 15 27 C17.36602016 27.74559324 17.36602016 27.74559324 20 28 C22.2800293 29.015625 22.2800293 29.015625 24.57421875 30.25 C25.40630859 30.6934375 26.23839844 31.136875 27.09570312 31.59375 C27.95099609 32.0578125 28.80628906 32.521875 29.6875 33 C30.55439453 33.4640625 31.42128906 33.928125 32.31445312 34.40625 C33.91395649 35.26263779 35.51201808 36.12172778 37.1081543 36.984375 C38.39534136 37.67539296 39.69329228 38.34664614 41 39 C41 39.66 41 40.32 41 41 C40.11477661 41.43868408 40.11477661 41.43868408 39.21166992 41.88623047 C36.53589716 43.21371706 33.86168684 44.5443217 31.1875 45.875 C30.25873047 46.33519531 29.32996094 46.79539062 28.37304688 47.26953125 C27.48037109 47.71425781 26.58769531 48.15898437 25.66796875 48.6171875 C24.84578857 49.02565918 24.0236084 49.43413086 23.17651367 49.85498047 C20.80922565 51.05241571 20.80922565 51.05241571 18 53 C17.01 53 16.02 53 15 53 C14.72365723 53.71567139 14.44731445 54.43134277 14.16259766 55.16870117 C13.01979109 57.95180233 11.74996205 60.61344756 10.3984375 63.30078125 C9.90859375 64.27724609 9.41875 65.25371094 8.9140625 66.25976562 C8.15222656 67.77086914 8.15222656 67.77086914 7.375 69.3125 C6.859375 70.33923828 6.34375 71.36597656 5.8125 72.42382812 C4.54347219 74.95013349 3.27258234 77.47548382 2 80 C1.34 80 0.68 80 0 80 C-0.25765137 79.28046143 -0.51530273 78.56092285 -0.78076172 77.81958008 C-6.59156892 62.39365268 -11.67146376 52.8046277 -26.8125 45.875 C-30.83386165 44.11964372 -34.86914124 42.47917213 -39 41 C-39 40.34 -39 39.68 -39 39 C-37.92069214 38.61352295 -37.92069214 38.61352295 -36.81958008 38.21923828 C-21.39365268 32.40843108 -11.8046277 27.32853624 -4.875 12.1875 C-3.11964372 8.16613835 -1.47917213 4.13085876 0 0 Z " fill="#FF9C00" transform="translate(79,400)"/>
<path d="M0 0 C0.66 0 1.32 0 2 0 C3.79498186 3.56083895 5.58539784 7.12395469 7.375 10.6875 C7.88289063 11.69490234 8.39078125 12.70230469 8.9140625 13.74023438 C9.64882813 15.20493164 9.64882813 15.20493164 10.3984375 16.69921875 C10.84880371 17.59471436 11.29916992 18.49020996 11.76318359 19.4128418 C13 22 13 22 13.85009766 24.76879883 C14.22956543 25.50509521 14.6090332 26.2413916 15 27 C17.36602016 27.74559324 17.36602016 27.74559324 20 28 C22.2800293 29.015625 22.2800293 29.015625 24.57421875 30.25 C25.40630859 30.6934375 26.23839844 31.136875 27.09570312 31.59375 C27.95099609 32.0578125 28.80628906 32.521875 29.6875 33 C30.55439453 33.4640625 31.42128906 33.928125 32.31445312 34.40625 C33.91395649 35.26263779 35.51201808 36.12172778 37.1081543 36.984375 C38.39534136 37.67539296 39.69329228 38.34664614 41 39 C41 39.66 41 40.32 41 41 C40.11477661 41.43868408 40.11477661 41.43868408 39.21166992 41.88623047 C36.53589716 43.21371706 33.86168684 44.5443217 31.1875 45.875 C30.25873047 46.33519531 29.32996094 46.79539063 28.37304688 47.26953125 C27.48037109 47.71425781 26.58769531 48.15898438 25.66796875 48.6171875 C24.84578857 49.02565918 24.0236084 49.43413086 23.17651367 49.85498047 C20.80922565 51.05241571 20.80922565 51.05241571 18 53 C17.01 53 16.02 53 15 53 C14.72365723 53.71567139 14.44731445 54.43134277 14.16259766 55.16870117 C13.01979109 57.95180233 11.74996205 60.61344756 10.3984375 63.30078125 C9.90859375 64.27724609 9.41875 65.25371094 8.9140625 66.25976562 C8.15222656 67.77086914 8.15222656 67.77086914 7.375 69.3125 C6.859375 70.33923828 6.34375 71.36597656 5.8125 72.42382812 C4.54347219 74.95013349 3.27258234 77.47548382 2 80 C1.34 80 0.68 80 0 80 C-0.25765137 79.28046143 -0.51530273 78.56092285 -0.78076172 77.81958008 C-6.59156892 62.39365268 -11.67146376 52.8046277 -26.8125 45.875 C-30.83386165 44.11964372 -34.86914124 42.47917213 -39 41 C-39 40.34 -39 39.68 -39 39 C-37.92069214 38.61352295 -37.92069214 38.61352295 -36.81958008 38.21923828 C-21.39365268 32.40843108 -11.8046277 27.32853624 -4.875 12.1875 C-3.11964372 8.16613835 -1.47917213 4.13085876 0 0 Z " fill="#FF9C00" transform="translate(431,32)"/>
<path d="M0 0 C9.8957931 4.15845688 16.39523724 16.26254603 22 25 C22.4036377 25.6276123 22.80727539 26.25522461 23.22314453 26.90185547 C45 61.22231585 45 61.22231585 45 77 C37.53258532 75.68039449 30.10107707 74.22288708 22.67578125 72.68359375 C19.28982899 71.92323089 19.28982899 71.92323089 16.9675293 72.04833984 C14.66946472 72.0510617 13.12208827 71.9035014 11 71 C8.41863542 67.90308077 6.86235034 64.39710128 5.1875 60.75 C4.16495993 58.65581157 3.14150038 56.56207188 2.1171875 54.46875 C1.60510742 53.39753906 1.09302734 52.32632813 0.56542969 51.22265625 C-1.891685 46.16434156 -4.54393827 41.21263664 -7.1875 36.25 C-8.10055937 34.52757749 -9.01095458 32.80373852 -9.91796875 31.078125 C-10.48680786 30.00159668 -10.48680786 30.00159668 -11.06713867 28.90332031 C-13.33379669 24.27864982 -13.57529254 20.0507301 -13 15 C-10.3230846 8.36590531 -5.44765495 4.48151102 0 0 Z " fill="#F6F1DF" transform="translate(325,66)"/>
<path d="M0 0 C3.80635497 3.20760251 7.54563567 6.40746109 11 10 C9.45462103 13.64507865 7.22908215 16.03364548 4.5 18.875 C-23.77969422 49.25025105 -36.25843637 89.24741103 -38 130 C-43.28 130 -48.56 130 -54 130 C-54 122.74 -54 115.48 -54 108 C-53.34 108 -52.68 108 -52 108 C-51.97421875 107.33097656 -51.9484375 106.66195312 -51.921875 105.97265625 C-49.62012829 66.99989942 -28.08035103 26.45512171 0 0 Z " fill="#EF9413" transform="translate(190,190)"/>
<path d="M0 0 C7.26 0 14.52 0 22 0 C22 5.28 22 10.56 22 16 C19.67582031 16.12955078 19.67582031 16.12955078 17.3046875 16.26171875 C-27.07574944 19.06543524 -63.34301571 35.03491463 -96 65 C-99.80635497 61.79239749 -103.54563567 58.59253891 -107 55 C-101.38368494 42.70266561 -85.24639069 33.65458544 -74 27 C-73.37029297 26.62375488 -72.74058594 26.24750977 -72.09179688 25.85986328 C-56.64899448 16.70386496 -40.91262345 10.00446811 -23.5 5.5625 C-22.53368652 5.31532227 -21.56737305 5.06814453 -20.57177734 4.81347656 C-13.73846238 3.17385521 -7.0107683 2.40618677 0 2 C0 1.34 0 0.68 0 0 Z " fill="#FEAE3F" transform="translate(298,136)"/>
<path d="M0 0 C0.66 0 1.32 0 2 0 C2.26103516 0.51272461 2.52207031 1.02544922 2.79101562 1.55371094 C8.016035 11.7704082 13.3163976 21.6466905 20 31 C16.94668063 34.2868085 13.3430671 35.96413091 9.375 37.9375 C-4.57640603 45.11726746 -16.65008426 54.21569468 -28 65 C-29.39001323 66.1943074 -30.78542545 67.38237547 -32.1875 68.5625 C-36.54355479 72.33233624 -40.26821284 76.62309006 -44 81 C-44.71285156 80.60167969 -45.42570312 80.20335937 -46.16015625 79.79296875 C-51.35606755 76.91878363 -56.48553046 74.20578782 -62 72 C-62 71.34 -62 70.68 -62 70 C-61.47792969 69.79246094 -60.95585937 69.58492188 -60.41796875 69.37109375 C-30.4673728 56.83485482 -14.30933042 27.4879508 0 0 Z " fill="#D1023F" transform="translate(191,121)"/>
<path d="M0 0 C3.00520472 0.10362775 4.12443437 1.11133601 6.375 3.125 C35.1815003 34.67497652 51.93462931 75.1108996 51 118 C48.36 118 45.72 118 43 118 C42.92483154 117.26064209 42.84966309 116.52128418 42.7722168 115.75952148 C38.56080543 74.83911853 27.6614573 37.66364408 -1.91796875 7.68359375 C-3 6 -3 6 -2.80078125 3.91015625 C-2 2 -2 2 0 0 Z " fill="#FEDD73" transform="translate(437,202)"/>
<path d="M0 0 C2.64 0 5.28 0 8 0 C9.54530603 41.49432868 -7.44955735 82.34886178 -35 113 C-37.25868717 115.14616954 -39.54886271 117.07038128 -42 119 C-43.32 117.35 -44.64 115.7 -46 114 C-44.37489034 110.13113098 -41.74901551 107.28645891 -39 104.1875 C-12.88568818 73.94442617 -3.75575345 39.01033311 0 0 Z " fill="#FACE38" transform="translate(480,320)"/>
<path d="M0 0 C0 2.64 0 5.28 0 8 C-1.52367187 8.07347656 -1.52367187 8.07347656 -3.078125 8.1484375 C-11.50850194 8.58916076 -19.71800477 9.28127351 -28 11 C-29.10722412 11.22381348 -29.10722412 11.22381348 -30.23681641 11.45214844 C-57.03193101 16.97112638 -81.88548719 28.0413726 -102.62109375 46.11328125 C-103.20930908 46.62584473 -103.79752441 47.1384082 -104.40356445 47.66650391 C-105.52728256 48.65937922 -106.6397825 49.66513967 -107.73901367 50.68505859 C-111.43191475 53.98676504 -111.43191475 53.98676504 -114.1796875 54.05078125 C-116.45887907 52.73511058 -117.584191 51.19450395 -119 49 C-108.88654688 38.03852441 -96.91294523 29.37449046 -84 22 C-83.4323291 21.6690332 -82.8646582 21.33806641 -82.27978516 20.99707031 C-57.23371902 6.47660479 -28.85780566 -0.68257622 0 0 Z " fill="#FEDD73" transform="translate(320,152)"/>
<path d="M0 0 C2.64 0 5.28 0 8 0 C8.04487549 0.54712646 8.08975098 1.09425293 8.13598633 1.65795898 C11.5548757 42.43343036 23.51040988 80.51055088 52.91796875 110.31640625 C54 112 54 112 53.80078125 114.08984375 C53 116 53 116 51 118 C47.99479528 117.89637225 46.87556563 116.88866399 44.625 114.875 C18.54904715 86.31562306 -0.50576649 47.34842491 -0.0625 8 C-0.05798828 7.22527344 -0.05347656 6.45054687 -0.04882812 5.65234375 C-0.03719758 3.76819476 -0.01926906 1.88408635 0 0 Z " fill="#FEDD73" transform="translate(152,320)"/>
<path d="M0 0 C3.47899158 1.39159663 4.48052501 2.63251488 6 6 C5.41734375 6.59683594 4.8346875 7.19367188 4.234375 7.80859375 C-24.78351327 38.51462961 -37.3383395 76.46408745 -40 118 C-42.64 118 -45.28 118 -48 118 C-49.46287981 75.68484701 -32.44964121 36.63854517 -5 5 C-3.34854241 3.3182618 -1.68574594 1.64736644 0 0 Z " fill="#FACE38" transform="translate(200,202)"/>
<path d="M0 0 C1.9140625 0.796875 1.9140625 0.796875 3.9140625 2.796875 C3.81043475 5.80207972 2.80272649 6.92130937 0.7890625 9.171875 C-22.50413544 30.43957747 -49.37920708 43.92689464 -80.0859375 50.796875 C-80.96894531 51.01085937 -81.85195313 51.22484375 -82.76171875 51.4453125 C-93.18964492 53.93072495 -103.42732007 53.91457752 -114.0859375 53.796875 C-114.0859375 51.156875 -114.0859375 48.516875 -114.0859375 45.796875 C-113.47411621 45.76247314 -112.86229492 45.72807129 -112.23193359 45.69262695 C-71.54233518 43.24943286 -33.19704327 29.90647254 -3.734375 0.84375 C-2.0859375 -0.203125 -2.0859375 -0.203125 0 0 Z " fill="#FEDD73" transform="translate(434.0859375,434.203125)"/>
<path d="M0 0 C3.86886902 1.62510966 6.71354109 4.25098449 9.8125 7 C39.54411606 32.67267789 75.32213729 43.52148603 114 46 C114 48.64 114 51.28 114 54 C101.97176958 54.41109142 90.78120024 53.4445525 79 51 C78.33145996 50.86609863 77.66291992 50.73219727 76.97412109 50.59423828 C53.30944439 45.73647309 31.04357978 34.71125284 12 20 C10.97648438 19.21238281 9.95296875 18.42476563 8.8984375 17.61328125 C3.65680575 13.45247114 -0.8590805 9.26008693 -5 4 C-3.35 2.68 -1.7 1.36 0 0 Z " fill="#FACE38" transform="translate(206,434)"/>
<path d="M0 0 C41.71530269 -1.42571288 82.13786428 15.25990454 113 43 C115.14616954 45.25868717 117.07038128 47.54886271 119 50 C117.35 51.32 115.7 52.64 114 54 C110.13113098 52.37489034 107.28645891 49.74901551 104.1875 47 C82.45393083 28.23348157 56.22625319 16.05160048 28 11 C26.85144531 10.78730469 25.70289063 10.57460937 24.51953125 10.35546875 C16.37914503 8.97725476 8.23608758 8.43287874 0 8 C0 5.36 0 2.72 0 0 Z " fill="#FACE38" transform="translate(320,152)"/>
<path d="M0 0 C0.16491943 0.64735107 0.32983887 1.29470215 0.49975586 1.96166992 C8.65915631 33.55462333 21.59906099 62.59906099 45 86 C43.02 87.65 41.04 89.3 39 91 C29.1042069 86.84154312 22.60476276 74.73745397 17 66 C16.39454346 65.05858154 16.39454346 65.05858154 15.77685547 64.09814453 C5.57107708 48.01377399 -9.55235119 22.74272287 -8 3 C-2.25 0 -2.25 0 0 0 Z " fill="#C9C5B4" transform="translate(20,227)"/>
<path d="M0 0 C3.32759923 1.55194754 5.48580485 3.30621949 8 6 C7.10796875 6.70511719 6.2159375 7.41023438 5.296875 8.13671875 C-17.83005457 27.46112561 -30.52413303 62.77553556 -37 91 C-42.75 89.125 -42.75 89.125 -45 88 C-44.46713865 80.73507343 -42.78663727 74.38048489 -40.4375 67.5 C-40.07962402 66.44554687 -39.72174805 65.39109375 -39.35302734 64.3046875 C-30.90337902 39.96614725 -17.60256459 18.8093598 0 0 Z " fill="#E4DFCC" transform="translate(57,66)"/>
<path d="M0 0 C33.41246088 6.51950456 62.72663208 26.99553152 86 51 C84.35 52.98 82.7 54.96 81 57 C77.37059 55.48568834 75.23715586 53.35056071 72.5625 50.5 C52.780093 30.39991931 26.56435875 17.56465564 0 9 C0 6.03 0 3.06 0 0 Z " fill="#93002A" transform="translate(240,14)"/>
<path d="M0 0 C0 2.97 0 5.94 0 9 C-1.81757813 9.58394531 -1.81757813 9.58394531 -3.671875 10.1796875 C-30.17831524 18.92878968 -55.84381928 32.53507224 -75 53.25 C-77.64052288 55.9754902 -77.64052288 55.9754902 -80.75 56.1875 C-83.33069013 54.8254691 -84.33788686 53.35466029 -86 51 C-66.18002799 30.15485703 -30.82068884 0 0 0 Z " fill="#93002A" transform="translate(144,14)"/>
<path d="M0 0 C0.33 0.66 0.66 1.32 1 2 C0.01789629 4.0088485 -0.98440599 6.00787329 -2 8 C-4.66871789 17.21920726 -2.92612599 26.8941107 1.5625 35.1875 C6.41217516 42.78650438 13.59566569 46.38225653 22 49 C24.97 49.495 24.97 49.495 28 50 C28 60.56 28 71.12 28 82 C25.36 82 22.72 82 20 82 C20 74.08 20 66.16 20 58 C17.69 58 15.38 58 13 58 C9.8671875 56.828125 9.8671875 56.828125 6.875 55.25 C5.38613281 54.48429687 5.38613281 54.48429687 3.8671875 53.703125 C-3.95315558 49.05779859 -7.70607651 43.10919323 -11.375 34.9375 C-13.61983385 24.38678092 -11.18703015 15.29095738 -5.6328125 6.26171875 C-3.94226192 3.92002308 -2.09532635 1.98194289 0 0 Z " fill="#F0A53B" transform="translate(284,278)"/>
<path d="M0 0 C0 2.97 0 5.94 0 9 C-0.89912109 8.72736328 -0.89912109 8.72736328 -1.81640625 8.44921875 C-28.99452527 0.91048019 -56.71604785 1.63849949 -84.23876953 6.54248047 C-88.14780336 7.19018422 -92.05750697 7.61026344 -96 8 C-96 5.36 -96 2.72 -96 0 C-71.98873262 -11.08212341 -24.01126738 -11.08212341 0 0 Z " fill="#E3DFCC" transform="translate(240,14)"/>
<path d="M0 0 C9.8957931 4.15845688 16.39523724 16.26254603 22 25 C22.4036377 25.6276123 22.80727539 26.25522461 23.22314453 26.90185547 C45 61.22231585 45 61.22231585 45 77 C41.37 76.34 37.74 75.68 34 75 C33.75121094 73.71996094 33.50242187 72.43992187 33.24609375 71.12109375 C32.0658939 65.84266282 30.20496405 61.01820173 28.0625 56.0625 C27.6698999 55.15371094 27.2772998 54.24492188 26.87280273 53.30859375 C19.04819073 35.72120523 7.9438604 20.18681388 -5 6 C-3.35 4.02 -1.7 2.04 0 0 Z " fill="#E4DFCB" transform="translate(325,66)"/>
<path d="M0 0 C3.37462715 0.54723683 5.08235 1.0549 8 3 C7.85820962 5.22942748 7.71140302 7.45853628 7.5625 9.6875 C7.48128906 10.92886719 7.40007813 12.17023438 7.31640625 13.44921875 C7 17 7 17 6.49072266 19.35961914 C5.54832236 24.43029534 5.80968753 29.6074035 5.8125 34.75 C5.81185547 35.95688477 5.81121094 37.16376953 5.81054688 38.40722656 C5.8585334 46.57147985 6.36677341 54.4757205 7.5625 62.546875 C8.00871872 66.06881565 8.07273975 69.45393722 8 73 C5.36 74.32 2.72 75.64 0 77 C-2.28211346 64.75335089 -3.4850904 52.92477394 -3.39111328 40.46557617 C-3.37497889 37.93418748 -3.39111075 35.40438908 -3.41015625 32.87304688 C-3.42236415 21.64462321 -2.18702638 11.00736852 0 0 Z " fill="#92002A" transform="translate(11,154)"/>
<path d="M0 0 C2.64 0 5.28 0 8 0 C8 2.64 8 5.28 8 8 C15.92 8 23.84 8 32 8 C32 13.28 32 18.56 32 24 C34.64 24 37.28 24 40 24 C40 26.64 40 29.28 40 32 C34.72 32 29.44 32 24 32 C24 26.72 24 21.44 24 16 C16.08 16 8.16 16 0 16 C0 10.72 0 5.44 0 0 Z " fill="#F0A53B" transform="translate(280,368)"/>
<path d="M0 0 C7.91317365 1.13045338 7.91317365 1.13045338 10.8125 3.8125 C11.37582031 4.31394531 11.93914062 4.81539063 12.51953125 5.33203125 C16.17097285 9.44592455 16.43409959 13.19581856 16.31640625 18.53125 C15.69970296 23.34305841 12.99340629 26.00659371 9.6875 29.3125 C7 31 7 31 0 32 C0 21.44 0 10.88 0 0 Z " fill="#F0A63C" transform="translate(328,328)"/>
<path d="M0 0 C0 10.56 0 21.12 0 32 C-7 31 -7 31 -8 30 C-8.08700342 28.36527118 -8.10701063 26.72685945 -8.09765625 25.08984375 C-8.09443359 24.10048828 -8.09121094 23.11113281 -8.08789062 22.09179688 C-8.07951172 21.05087891 -8.07113281 20.00996094 -8.0625 18.9375 C-8.05798828 17.89271484 -8.05347656 16.84792969 -8.04882812 15.77148438 C-8.03699913 13.1809334 -8.02051689 10.59049441 -8 8 C-9.98 8.33 -11.96 8.66 -14 9 C-11.44916023 2.50695332 -6.64493866 0 0 0 Z " fill="#F0A53B" transform="translate(312,280)"/>
<path d="M0 0 C4.0743356 0.84881992 5.54405875 2.30225596 8 5.625 C8.625 8.625 8.625 8.625 8 11.625 C5.54405875 14.94774404 4.0743356 16.40118008 0 17.25 C-4.0743356 16.40118008 -5.54405875 14.94774404 -8 11.625 C-8.625 8.625 -8.625 8.625 -8 5.625 C-5.54405875 2.30225596 -4.0743356 0.84881992 0 0 Z " fill="#DFD3C3" transform="translate(112,311.375)"/>
<path d="M0 0 C4.0743356 0.84881992 5.54405875 2.30225596 8 5.625 C8.625 8.625 8.625 8.625 8 11.625 C5.54405875 14.94774404 4.0743356 16.40118008 0 17.25 C-4.0743356 16.40118008 -5.54405875 14.94774404 -8 11.625 C-8.625 8.625 -8.625 8.625 -8 5.625 C-5.54405875 2.30225596 -4.0743356 0.84881992 0 0 Z " fill="#FCF0E4" transform="translate(40,183.375)"/>
<path d="M0 0 C4.0743356 0.84881992 5.54405875 2.30225596 8 5.625 C8.625 8.625 8.625 8.625 8 11.625 C5.54405875 14.94774404 4.0743356 16.40118008 0 17.25 C-4.0743356 16.40118008 -5.54405875 14.94774404 -8 11.625 C-8.625 8.625 -8.625 8.625 -8 5.625 C-5.54405875 2.30225596 -4.0743356 0.84881992 0 0 Z " fill="#FCF0E4" transform="translate(272,55.375)"/>
<path d="M0 0 C4.0743356 0.84881992 5.54405875 2.30225596 8 5.625 C8.625 8.625 8.625 8.625 8 11.625 C5.54405875 14.94774404 4.0743356 16.40118008 0 17.25 C-4.0743356 16.40118008 -5.54405875 14.94774404 -8 11.625 C-8.625 8.625 -8.625 8.625 -8 5.625 C-5.54405875 2.30225596 -4.0743356 0.84881992 0 0 Z " fill="#FCF0E4" transform="translate(112,55.375)"/>
<path d="M0 0 C0 7.26 0 14.52 0 22 C-6.08938547 17.12849162 -6.08938547 17.12849162 -8 12 C-8.25702218 8.27317844 -8.47967255 4.49740784 -7 1 C-4 0 -4 0 0 0 Z " fill="#FEC052" transform="translate(304,288)"/>
<path d="M0 0 C5.15789474 2.57894737 5.15789474 2.57894737 7 6 C8.00985029 10.77221287 8.3754111 15.26247288 7 20 C4.69 20.33 2.38 20.66 0 21 C0 14.07 0 7.14 0 0 Z " fill="#FEBF51" transform="translate(328,339)"/>
<path d="M0 0 C5.28 0 10.56 0 16 0 C16 2.64 16 5.28 16 8 C10.72 8 5.44 8 0 8 C0 5.36 0 2.72 0 0 Z " fill="#F0A53B" transform="translate(328,280)"/>
<path d="M0 0 C0.66 0.33 1.32 0.66 2 1 C-3.48015148 6.44953611 -8.6632703 9.57948057 -16 12 C-16 9.69 -16 7.38 -16 5 C-15.18015625 4.80664062 -14.3603125 4.61328125 -13.515625 4.4140625 C-12.43796875 4.15367187 -11.3603125 3.89328125 -10.25 3.625 C-8.64898437 3.24214844 -8.64898437 3.24214844 -7.015625 2.8515625 C-4.05597899 2.12330461 -4.05597899 2.12330461 -1.734375 0.8359375 C-1.16203125 0.56007813 -0.5896875 0.28421875 0 0 Z " fill="#F1A83D" transform="translate(344,371)"/>
<path d="M0 0 C2.64 0 5.28 0 8 0 C8 2.64 8 5.28 8 8 C5.36 8.33 2.72 8.66 0 9 C0 6.03 0 3.06 0 0 Z " fill="#F0A53B" transform="translate(304,256)"/>
</svg>
